<?xml version="1.0" encoding="UTF-8" standalone="no"?><svg xmlns="http://www.w3.org/2000/svg" xmlns:xlink="http://www.w3.org/1999/xlink" contentScriptType="application/ecmascript" contentStyleType="text/css" height="1132px" preserveAspectRatio="none" style="width:940px;height:1132px;" version="1.1" viewBox="0 0 940 1132" width="940px" zoomAndPan="magnify"><defs><filter height="300%" id="fo12zmn5yq3al" width="300%" x="-1" y="-1"><feGaussianBlur result="blurOut" stdDeviation="2.0"/><feColorMatrix in="blurOut" result="blurOut2" type="matrix" values="0 0 0 0 0 0 0 0 0 0 0 0 0 0 0 0 0 0 .4 0"/><feOffset dx="4.0" dy="4.0" in="blurOut2" result="blurOut3"/><feBlend in="SourceGraphic" in2="blurOut3" mode="normal"/></filter></defs><g><text fill="#000000" font-family="sans-serif" font-size="18" lengthAdjust="spacingAndGlyphs" textLength="247" x="350.5" y="16.708">MasterMind - Class Diagram</text><!--MD5=[b6dcce5e5ef3c84b0b048d11301373dd]
class Game--><rect fill="#FEFECE" filter="url(#fo12zmn5yq3al)" height="86.4141" id="Game" style="stroke: #A80036; stroke-width: 1.5;" width="153" x="432" y="28.9531"/><ellipse cx="486.25" cy="44.9531" fill="#ADD1B2" rx="11" ry="11" style="stroke: #A80036; stroke-width: 1.0;"/><path d="M489.2188,50.5938 Q488.6406,50.8906 488,51.0391 Q487.3594,51.1875 486.6563,51.1875 Q484.1563,51.1875 482.8359,49.5391 Q481.5156,47.8906 481.5156,44.7656 Q481.5156,41.6406 482.8359,39.9844 Q484.1563,38.3281 486.6563,38.3281 Q487.3594,38.3281 488.0078,38.4844 Q488.6563,38.6406 489.2188,38.9375 L489.2188,41.6563 Q488.5938,41.0781 488,40.8047 Q487.4063,40.5313 486.7813,40.5313 Q485.4375,40.5313 484.75,41.6016 Q484.0625,42.6719 484.0625,44.7656 Q484.0625,46.8594 484.75,47.9297 Q485.4375,49 486.7813,49 Q487.4063,49 488,48.7266 Q488.5938,48.4531 489.2188,47.875 L489.2188,50.5938 Z "/><text fill="#000000" font-family="sans-serif" font-size="12" lengthAdjust="spacingAndGlyphs" textLength="36" x="506.75" y="49.1074">Game</text><line style="stroke: #A80036; stroke-width: 1.5;" x1="433" x2="584" y1="60.9531" y2="60.9531"/><ellipse cx="443" cy="71.9531" fill="none" rx="3" ry="3" style="stroke: #038048; stroke-width: 1.0;"/><text fill="#000000" font-family="sans-serif" font-size="11" lengthAdjust="spacingAndGlyphs" textLength="97" x="452" y="75.1636">Player [ ] players</text><ellipse cx="443" cy="84.7578" fill="none" rx="3" ry="3" style="stroke: #038048; stroke-width: 1.0;"/><text fill="#000000" font-family="sans-serif" font-size="11" lengthAdjust="spacingAndGlyphs" textLength="127" x="452" y="87.9683">Dashboard dashboard</text><ellipse cx="443" cy="97.5625" fill="none" rx="3" ry="3" style="stroke: #038048; stroke-width: 1.0;"/><text fill="#000000" font-family="sans-serif" font-size="11" lengthAdjust="spacingAndGlyphs" textLength="72" x="452" y="100.7729">Result result</text><line style="stroke: #A80036; stroke-width: 1.5;" x1="433" x2="584" y1="107.3672" y2="107.3672"/><!--MD5=[2cb47ba637a0d19583e6199456f6ad0b]
class Player--><rect fill="#FEFECE" filter="url(#fo12zmn5yq3al)" height="48" id="Player" style="stroke: #A80036; stroke-width: 1.5;" width="70" x="316.5" y="248.9531"/><ellipse cx="331.5" cy="264.9531" fill="#ADD1B2" rx="11" ry="11" style="stroke: #A80036; stroke-width: 1.0;"/><path d="M334.4688,270.5938 Q333.8906,270.8906 333.25,271.0391 Q332.6094,271.1875 331.9063,271.1875 Q329.4063,271.1875 328.0859,269.5391 Q326.7656,267.8906 326.7656,264.7656 Q326.7656,261.6406 328.0859,259.9844 Q329.4063,258.3281 331.9063,258.3281 Q332.6094,258.3281 333.2578,258.4844 Q333.9063,258.6406 334.4688,258.9375 L334.4688,261.6563 Q333.8438,261.0781 333.25,260.8047 Q332.6563,260.5313 332.0313,260.5313 Q330.6875,260.5313 330,261.6016 Q329.3125,262.6719 329.3125,264.7656 Q329.3125,266.8594 330,267.9297 Q330.6875,269 332.0313,269 Q332.6563,269 333.25,268.7266 Q333.8438,268.4531 334.4688,267.875 L334.4688,270.5938 Z "/><text fill="#000000" font-family="sans-serif" font-size="12" lengthAdjust="spacingAndGlyphs" textLength="38" x="345.5" y="269.1074">Player</text><line style="stroke: #A80036; stroke-width: 1.5;" x1="317.5" x2="385.5" y1="280.9531" y2="280.9531"/><line style="stroke: #A80036; stroke-width: 1.5;" x1="317.5" x2="385.5" y1="288.9531" y2="288.9531"/><!--MD5=[f50208e08ebeebbee8e1b321793733cf]
class Attacker--><rect fill="#FEFECE" filter="url(#fo12zmn5yq3al)" height="73.6094" id="Attacker" style="stroke: #A80036; stroke-width: 1.5;" width="203" x="6" y="369.9531"/><ellipse cx="76.75" cy="385.9531" fill="#ADD1B2" rx="11" ry="11" style="stroke: #A80036; stroke-width: 1.0;"/><path d="M79.7188,391.5938 Q79.1406,391.8906 78.5,392.0391 Q77.8594,392.1875 77.1563,392.1875 Q74.6563,392.1875 73.3359,390.5391 Q72.0156,388.8906 72.0156,385.7656 Q72.0156,382.6406 73.3359,380.9844 Q74.6563,379.3281 77.1563,379.3281 Q77.8594,379.3281 78.5078,379.4844 Q79.1563,379.6406 79.7188,379.9375 L79.7188,382.6563 Q79.0938,382.0781 78.5,381.8047 Q77.9063,381.5313 77.2813,381.5313 Q75.9375,381.5313 75.25,382.6016 Q74.5625,383.6719 74.5625,385.7656 Q74.5625,387.8594 75.25,388.9297 Q75.9375,390 77.2813,390 Q77.9063,390 78.5,389.7266 Q79.0938,389.4531 79.7188,388.875 L79.7188,391.5938 Z "/><text fill="#000000" font-family="sans-serif" font-size="12" lengthAdjust="spacingAndGlyphs" textLength="53" x="97.25" y="390.1074">Attacker</text><line style="stroke: #A80036; stroke-width: 1.5;" x1="7" x2="208" y1="401.9531" y2="401.9531"/><ellipse cx="17" cy="412.9531" fill="none" rx="3" ry="3" style="stroke: #038048; stroke-width: 1.0;"/><text fill="#000000" font-family="sans-serif" font-size="11" lengthAdjust="spacingAndGlyphs" textLength="177" x="26" y="416.1636">PublicCombination combination</text><ellipse cx="17" cy="425.7578" fill="none" rx="3" ry="3" style="stroke: #038048; stroke-width: 1.0;"/><text fill="#000000" font-family="sans-serif" font-size="11" lengthAdjust="spacingAndGlyphs" textLength="42" x="26" y="428.9683">Int lifes</text><line style="stroke: #A80036; stroke-width: 1.5;" x1="7" x2="208" y1="435.5625" y2="435.5625"/><!--MD5=[014e7f206415c8819212b9ce0f4cb659]
class Defender--><rect fill="#FEFECE" filter="url(#fo12zmn5yq3al)" height="60.8047" id="Defender" style="stroke: #A80036; stroke-width: 1.5;" width="207" x="248" y="376.4531"/><ellipse cx="318.25" cy="392.4531" fill="#ADD1B2" rx="11" ry="11" style="stroke: #A80036; stroke-width: 1.0;"/><path d="M321.2188,398.0938 Q320.6406,398.3906 320,398.5391 Q319.3594,398.6875 318.6563,398.6875 Q316.1563,398.6875 314.8359,397.0391 Q313.5156,395.3906 313.5156,392.2656 Q313.5156,389.1406 314.8359,387.4844 Q316.1563,385.8281 318.6563,385.8281 Q319.3594,385.8281 320.0078,385.9844 Q320.6563,386.1406 321.2188,386.4375 L321.2188,389.1563 Q320.5938,388.5781 320,388.3047 Q319.4063,388.0313 318.7813,388.0313 Q317.4375,388.0313 316.75,389.1016 Q316.0625,390.1719 316.0625,392.2656 Q316.0625,394.3594 316.75,395.4297 Q317.4375,396.5 318.7813,396.5 Q319.4063,396.5 320,396.2266 Q320.5938,395.9531 321.2188,395.375 L321.2188,398.0938 Z "/><text fill="#000000" font-family="sans-serif" font-size="12" lengthAdjust="spacingAndGlyphs" textLength="58" x="338.75" y="396.6074">Defender</text><line style="stroke: #A80036; stroke-width: 1.5;" x1="249" x2="454" y1="408.4531" y2="408.4531"/><ellipse cx="259" cy="419.4531" fill="none" rx="3" ry="3" style="stroke: #038048; stroke-width: 1.0;"/><text fill="#000000" font-family="sans-serif" font-size="11" lengthAdjust="spacingAndGlyphs" textLength="181" x="268" y="422.6636">SecretCombination combination</text><line style="stroke: #A80036; stroke-width: 1.5;" x1="249" x2="454" y1="429.2578" y2="429.2578"/><!--MD5=[055ae584e8f48d8fc3c3de49aadf0637]
class Dashboard--><rect fill="#FEFECE" filter="url(#fo12zmn5yq3al)" height="73.6094" id="Dashboard" style="stroke: #A80036; stroke-width: 1.5;" width="144" x="591.5" y="235.9531"/><ellipse cx="625.85" cy="251.9531" fill="#ADD1B2" rx="11" ry="11" style="stroke: #A80036; stroke-width: 1.0;"/><path d="M628.8188,257.5938 Q628.2406,257.8906 627.6,258.0391 Q626.9594,258.1875 626.2563,258.1875 Q623.7563,258.1875 622.4359,256.5391 Q621.1156,254.8906 621.1156,251.7656 Q621.1156,248.6406 622.4359,246.9844 Q623.7563,245.3281 626.2563,245.3281 Q626.9594,245.3281 627.6078,245.4844 Q628.2563,245.6406 628.8188,245.9375 L628.8188,248.6563 Q628.1938,248.0781 627.6,247.8047 Q627.0063,247.5313 626.3813,247.5313 Q625.0375,247.5313 624.35,248.6016 Q623.6625,249.6719 623.6625,251.7656 Q623.6625,253.8594 624.35,254.9297 Q625.0375,256 626.3813,256 Q627.0063,256 627.6,255.7266 Q628.1938,255.4531 628.8188,254.875 L628.8188,257.5938 Z "/><text fill="#000000" font-family="sans-serif" font-size="12" lengthAdjust="spacingAndGlyphs" textLength="69" x="644.15" y="256.1074">Dashboard</text><line style="stroke: #A80036; stroke-width: 1.5;" x1="592.5" x2="734.5" y1="267.9531" y2="267.9531"/><ellipse cx="602.5" cy="278.9531" fill="none" rx="3" ry="3" style="stroke: #038048; stroke-width: 1.0;"/><text fill="#000000" font-family="sans-serif" font-size="11" lengthAdjust="spacingAndGlyphs" textLength="71" x="611.5" y="282.1636">Row [ ] rows</text><ellipse cx="602.5" cy="291.7578" fill="none" rx="3" ry="3" style="stroke: #038048; stroke-width: 1.0;"/><text fill="#000000" font-family="sans-serif" font-size="11" lengthAdjust="spacingAndGlyphs" textLength="118" x="611.5" y="294.9683">Columns [ ] columns</text><line style="stroke: #A80036; stroke-width: 1.5;" x1="592.5" x2="734.5" y1="301.5625" y2="301.5625"/><!--MD5=[05aedcff764caeeb5d443618a4d90de7]
class Row--><rect fill="#FEFECE" filter="url(#fo12zmn5yq3al)" height="48" id="Row" style="stroke: #A80036; stroke-width: 1.5;" width="57" x="562" y="535.9531"/><ellipse cx="577" cy="551.9531" fill="#ADD1B2" rx="11" ry="11" style="stroke: #A80036; stroke-width: 1.0;"/><path d="M579.9688,557.5938 Q579.3906,557.8906 578.75,558.0391 Q578.1094,558.1875 577.4063,558.1875 Q574.9063,558.1875 573.5859,556.5391 Q572.2656,554.8906 572.2656,551.7656 Q572.2656,548.6406 573.5859,546.9844 Q574.9063,545.3281 577.4063,545.3281 Q578.1094,545.3281 578.7578,545.4844 Q579.4063,545.6406 579.9688,545.9375 L579.9688,548.6563 Q579.3438,548.0781 578.75,547.8047 Q578.1563,547.5313 577.5313,547.5313 Q576.1875,547.5313 575.5,548.6016 Q574.8125,549.6719 574.8125,551.7656 Q574.8125,553.8594 575.5,554.9297 Q576.1875,556 577.5313,556 Q578.1563,556 578.75,555.7266 Q579.3438,555.4531 579.9688,554.875 L579.9688,557.5938 Z "/><text fill="#000000" font-family="sans-serif" font-size="12" lengthAdjust="spacingAndGlyphs" textLength="25" x="591" y="556.1074">Row</text><line style="stroke: #A80036; stroke-width: 1.5;" x1="563" x2="618" y1="567.9531" y2="567.9531"/><line style="stroke: #A80036; stroke-width: 1.5;" x1="563" x2="618" y1="575.9531" y2="575.9531"/><!--MD5=[e06ef809dd6be8ce79b58fe0a1161eb8]
class Column--><rect fill="#FEFECE" filter="url(#fo12zmn5yq3al)" height="48" id="Column" style="stroke: #A80036; stroke-width: 1.5;" width="78" x="654.5" y="535.9531"/><ellipse cx="669.5" cy="551.9531" fill="#ADD1B2" rx="11" ry="11" style="stroke: #A80036; stroke-width: 1.0;"/><path d="M672.4688,557.5938 Q671.8906,557.8906 671.25,558.0391 Q670.6094,558.1875 669.9063,558.1875 Q667.4063,558.1875 666.0859,556.5391 Q664.7656,554.8906 664.7656,551.7656 Q664.7656,548.6406 666.0859,546.9844 Q667.4063,545.3281 669.9063,545.3281 Q670.6094,545.3281 671.2578,545.4844 Q671.9063,545.6406 672.4688,545.9375 L672.4688,548.6563 Q671.8438,548.0781 671.25,547.8047 Q670.6563,547.5313 670.0313,547.5313 Q668.6875,547.5313 668,548.6016 Q667.3125,549.6719 667.3125,551.7656 Q667.3125,553.8594 668,554.9297 Q668.6875,556 670.0313,556 Q670.6563,556 671.25,555.7266 Q671.8438,555.4531 672.4688,554.875 L672.4688,557.5938 Z "/><text fill="#000000" font-family="sans-serif" font-size="12" lengthAdjust="spacingAndGlyphs" textLength="46" x="683.5" y="556.1074">Column</text><line style="stroke: #A80036; stroke-width: 1.5;" x1="655.5" x2="731.5" y1="567.9531" y2="567.9531"/><line style="stroke: #A80036; stroke-width: 1.5;" x1="655.5" x2="731.5" y1="575.9531" y2="575.9531"/><!--MD5=[d8c8cfd5ca149094f5b67f9f607a5ec7]
class Token--><rect fill="#FEFECE" filter="url(#fo12zmn5yq3al)" height="48" id="Token" style="stroke: #A80036; stroke-width: 1.5;" width="70" x="773.5" y="783.9531"/><ellipse cx="788.5" cy="799.9531" fill="#ADD1B2" rx="11" ry="11" style="stroke: #A80036; stroke-width: 1.0;"/><path d="M791.4688,805.5938 Q790.8906,805.8906 790.25,806.0391 Q789.6094,806.1875 788.9063,806.1875 Q786.4063,806.1875 785.0859,804.5391 Q783.7656,802.8906 783.7656,799.7656 Q783.7656,796.6406 785.0859,794.9844 Q786.4063,793.3281 788.9063,793.3281 Q789.6094,793.3281 790.2578,793.4844 Q790.9063,793.6406 791.4688,793.9375 L791.4688,796.6563 Q790.8438,796.0781 790.25,795.8047 Q789.6563,795.5313 789.0313,795.5313 Q787.6875,795.5313 787,796.6016 Q786.3125,797.6719 786.3125,799.7656 Q786.3125,801.8594 787,802.9297 Q787.6875,804 789.0313,804 Q789.6563,804 790.25,803.7266 Q790.8438,803.4531 791.4688,802.875 L791.4688,805.5938 Z "/><text fill="#000000" font-family="sans-serif" font-size="12" lengthAdjust="spacingAndGlyphs" textLength="38" x="802.5" y="804.1074">Token</text><line style="stroke: #A80036; stroke-width: 1.5;" x1="774.5" x2="842.5" y1="815.9531" y2="815.9531"/><line style="stroke: #A80036; stroke-width: 1.5;" x1="774.5" x2="842.5" y1="823.9531" y2="823.9531"/><!--MD5=[11b747870319a085bc745183e08c5f76]
class Storage--><rect fill="#FEFECE" filter="url(#fo12zmn5yq3al)" height="48" id="Storage" style="stroke: #A80036; stroke-width: 1.5;" width="82" x="767.5" y="535.9531"/><ellipse cx="782.5" cy="551.9531" fill="#ADD1B2" rx="11" ry="11" style="stroke: #A80036; stroke-width: 1.0;"/><path d="M785.4688,557.5938 Q784.8906,557.8906 784.25,558.0391 Q783.6094,558.1875 782.9063,558.1875 Q780.4063,558.1875 779.0859,556.5391 Q777.7656,554.8906 777.7656,551.7656 Q777.7656,548.6406 779.0859,546.9844 Q780.4063,545.3281 782.9063,545.3281 Q783.6094,545.3281 784.2578,545.4844 Q784.9063,545.6406 785.4688,545.9375 L785.4688,548.6563 Q784.8438,548.0781 784.25,547.8047 Q783.6563,547.5313 783.0313,547.5313 Q781.6875,547.5313 781,548.6016 Q780.3125,549.6719 780.3125,551.7656 Q780.3125,553.8594 781,554.9297 Q781.6875,556 783.0313,556 Q783.6563,556 784.25,555.7266 Q784.8438,555.4531 785.4688,554.875 L785.4688,557.5938 Z "/><text fill="#000000" font-family="sans-serif" font-size="12" lengthAdjust="spacingAndGlyphs" textLength="50" x="796.5" y="556.1074">Storage</text><line style="stroke: #A80036; stroke-width: 1.5;" x1="768.5" x2="848.5" y1="567.9531" y2="567.9531"/><line style="stroke: #A80036; stroke-width: 1.5;" x1="768.5" x2="848.5" y1="575.9531" y2="575.9531"/><!--MD5=[28491d17d5ee38c9c116625a5ffc259a]
class Combination--><rect fill="#FEFECE" filter="url(#fo12zmn5yq3al)" height="112.0234" id="Combination" style="stroke: #A80036; stroke-width: 1.5;" width="188" x="156.5" y="503.9531"/><ellipse cx="207.25" cy="519.9531" fill="#ADD1B2" rx="11" ry="11" style="stroke: #A80036; stroke-width: 1.0;"/><path d="M210.2188,525.5938 Q209.6406,525.8906 209,526.0391 Q208.3594,526.1875 207.6563,526.1875 Q205.1563,526.1875 203.8359,524.5391 Q202.5156,522.8906 202.5156,519.7656 Q202.5156,516.6406 203.8359,514.9844 Q205.1563,513.3281 207.6563,513.3281 Q208.3594,513.3281 209.0078,513.4844 Q209.6563,513.6406 210.2188,513.9375 L210.2188,516.6563 Q209.5938,516.0781 209,515.8047 Q208.4063,515.5313 207.7813,515.5313 Q206.4375,515.5313 205.75,516.6016 Q205.0625,517.6719 205.0625,519.7656 Q205.0625,521.8594 205.75,522.9297 Q206.4375,524 207.7813,524 Q208.4063,524 209,523.7266 Q209.5938,523.4531 210.2188,522.875 L210.2188,525.5938 Z "/><text fill="#000000" font-family="sans-serif" font-size="12" lengthAdjust="spacingAndGlyphs" textLength="78" x="227.75" y="524.1074">Combination</text><line style="stroke: #A80036; stroke-width: 1.5;" x1="157.5" x2="343.5" y1="535.9531" y2="535.9531"/><ellipse cx="167.5" cy="546.9531" fill="none" rx="3" ry="3" style="stroke: #038048; stroke-width: 1.0;"/><text fill="#000000" font-family="sans-serif" font-size="11" lengthAdjust="spacingAndGlyphs" textLength="110" x="176.5" y="550.1636">Ball [ ] combination</text><ellipse cx="167.5" cy="559.7578" fill="none" rx="3" ry="3" style="stroke: #038048; stroke-width: 1.0;"/><text fill="#000000" font-family="sans-serif" font-size="11" lengthAdjust="spacingAndGlyphs" textLength="72" x="176.5" y="562.9683">Result result</text><line style="stroke: #A80036; stroke-width: 1.5;" x1="157.5" x2="343.5" y1="569.5625" y2="569.5625"/><ellipse cx="167.5" cy="580.5625" fill="#84BE84" rx="3" ry="3" style="stroke: #038048; stroke-width: 1.0;"/><text fill="#000000" font-family="sans-serif" font-size="11" lengthAdjust="spacingAndGlyphs" textLength="124" x="176.5" y="583.7729">void setCombination()</text><ellipse cx="167.5" cy="593.3672" fill="#84BE84" rx="3" ry="3" style="stroke: #038048; stroke-width: 1.0;"/><text fill="#000000" font-family="sans-serif" font-size="11" lengthAdjust="spacingAndGlyphs" textLength="138" x="176.5" y="596.5776">Ball [ ] getCombination()</text><ellipse cx="167.5" cy="606.1719" fill="#84BE84" rx="3" ry="3" style="stroke: #038048; stroke-width: 1.0;"/><text fill="#000000" font-family="sans-serif" font-size="11" lengthAdjust="spacingAndGlyphs" textLength="162" x="176.5" y="609.3823">Result validateCombination()</text><!--MD5=[3e8d429d1e6ded7219c9e40ba733f3d0]
class PublicCombination--><rect fill="#FEFECE" filter="url(#fo12zmn5yq3al)" height="48" id="PublicCombination" style="stroke: #A80036; stroke-width: 1.5;" width="147" x="40" y="675.9531"/><ellipse cx="55" cy="691.9531" fill="#ADD1B2" rx="11" ry="11" style="stroke: #A80036; stroke-width: 1.0;"/><path d="M57.9688,697.5938 Q57.3906,697.8906 56.75,698.0391 Q56.1094,698.1875 55.4063,698.1875 Q52.9063,698.1875 51.5859,696.5391 Q50.2656,694.8906 50.2656,691.7656 Q50.2656,688.6406 51.5859,686.9844 Q52.9063,685.3281 55.4063,685.3281 Q56.1094,685.3281 56.7578,685.4844 Q57.4063,685.6406 57.9688,685.9375 L57.9688,688.6563 Q57.3438,688.0781 56.75,687.8047 Q56.1563,687.5313 55.5313,687.5313 Q54.1875,687.5313 53.5,688.6016 Q52.8125,689.6719 52.8125,691.7656 Q52.8125,693.8594 53.5,694.9297 Q54.1875,696 55.5313,696 Q56.1563,696 56.75,695.7266 Q57.3438,695.4531 57.9688,694.875 L57.9688,697.5938 Z "/><text fill="#000000" font-family="sans-serif" font-size="12" lengthAdjust="spacingAndGlyphs" textLength="115" x="69" y="696.1074">PublicCombination</text><line style="stroke: #A80036; stroke-width: 1.5;" x1="41" x2="186" y1="707.9531" y2="707.9531"/><line style="stroke: #A80036; stroke-width: 1.5;" x1="41" x2="186" y1="715.9531" y2="715.9531"/><!--MD5=[e370ee5c0c15ce04544d5f5a73174d72]
class SecretCombination--><rect fill="#FEFECE" filter="url(#fo12zmn5yq3al)" height="48" id="SecretCombination" style="stroke: #A80036; stroke-width: 1.5;" width="151" x="304" y="675.9531"/><ellipse cx="319" cy="691.9531" fill="#ADD1B2" rx="11" ry="11" style="stroke: #A80036; stroke-width: 1.0;"/><path d="M321.9688,697.5938 Q321.3906,697.8906 320.75,698.0391 Q320.1094,698.1875 319.4063,698.1875 Q316.9063,698.1875 315.5859,696.5391 Q314.2656,694.8906 314.2656,691.7656 Q314.2656,688.6406 315.5859,686.9844 Q316.9063,685.3281 319.4063,685.3281 Q320.1094,685.3281 320.7578,685.4844 Q321.4063,685.6406 321.9688,685.9375 L321.9688,688.6563 Q321.3438,688.0781 320.75,687.8047 Q320.1563,687.5313 319.5313,687.5313 Q318.1875,687.5313 317.5,688.6016 Q316.8125,689.6719 316.8125,691.7656 Q316.8125,693.8594 317.5,694.9297 Q318.1875,696 319.5313,696 Q320.1563,696 320.75,695.7266 Q321.3438,695.4531 321.9688,694.875 L321.9688,697.5938 Z "/><text fill="#000000" font-family="sans-serif" font-size="12" lengthAdjust="spacingAndGlyphs" textLength="119" x="333" y="696.1074">SecretCombination</text><line style="stroke: #A80036; stroke-width: 1.5;" x1="305" x2="454" y1="707.9531" y2="707.9531"/><line style="stroke: #A80036; stroke-width: 1.5;" x1="305" x2="454" y1="715.9531" y2="715.9531"/><!--MD5=[2741598bdf59a7d7e0d5c97658fd3022]
class Result--><rect fill="#FEFECE" filter="url(#fo12zmn5yq3al)" height="48" id="Result" style="stroke: #A80036; stroke-width: 1.5;" width="71" x="344" y="783.9531"/><ellipse cx="359" cy="799.9531" fill="#ADD1B2" rx="11" ry="11" style="stroke: #A80036; stroke-width: 1.0;"/><path d="M361.9688,805.5938 Q361.3906,805.8906 360.75,806.0391 Q360.1094,806.1875 359.4063,806.1875 Q356.9063,806.1875 355.5859,804.5391 Q354.2656,802.8906 354.2656,799.7656 Q354.2656,796.6406 355.5859,794.9844 Q356.9063,793.3281 359.4063,793.3281 Q360.1094,793.3281 360.7578,793.4844 Q361.4063,793.6406 361.9688,793.9375 L361.9688,796.6563 Q361.3438,796.0781 360.75,795.8047 Q360.1563,795.5313 359.5313,795.5313 Q358.1875,795.5313 357.5,796.6016 Q356.8125,797.6719 356.8125,799.7656 Q356.8125,801.8594 357.5,802.9297 Q358.1875,804 359.5313,804 Q360.1563,804 360.75,803.7266 Q361.3438,803.4531 361.9688,802.875 L361.9688,805.5938 Z "/><text fill="#000000" font-family="sans-serif" font-size="12" lengthAdjust="spacingAndGlyphs" textLength="39" x="373" y="804.1074">Result</text><line style="stroke: #A80036; stroke-width: 1.5;" x1="345" x2="414" y1="815.9531" y2="815.9531"/><line style="stroke: #A80036; stroke-width: 1.5;" x1="345" x2="414" y1="823.9531" y2="823.9531"/><!--MD5=[94c7f9372c62fd735ca66cf2c8b73ece]
class Ball--><rect fill="#FEFECE" filter="url(#fo12zmn5yq3al)" height="60.8047" id="Ball" style="stroke: #A80036; stroke-width: 1.5;" width="106" x="686.5" y="891.9531"/><ellipse cx="724.9" cy="907.9531" fill="#ADD1B2" rx="11" ry="11" style="stroke: #A80036; stroke-width: 1.0;"/><path d="M727.8688,913.5938 Q727.2906,913.8906 726.65,914.0391 Q726.0094,914.1875 725.3063,914.1875 Q722.8063,914.1875 721.4859,912.5391 Q720.1656,910.8906 720.1656,907.7656 Q720.1656,904.6406 721.4859,902.9844 Q722.8063,901.3281 725.3063,901.3281 Q726.0094,901.3281 726.6578,901.4844 Q727.3063,901.6406 727.8688,901.9375 L727.8688,904.6563 Q727.2438,904.0781 726.65,903.8047 Q726.0563,903.5313 725.4313,903.5313 Q724.0875,903.5313 723.4,904.6016 Q722.7125,905.6719 722.7125,907.7656 Q722.7125,909.8594 723.4,910.9297 Q724.0875,912 725.4313,912 Q726.0563,912 726.65,911.7266 Q727.2438,911.4531 727.8688,910.875 L727.8688,913.5938 Z "/><text fill="#000000" font-family="sans-serif" font-size="12" lengthAdjust="spacingAndGlyphs" textLength="22" x="744.1" y="912.1074">Ball</text><line style="stroke: #A80036; stroke-width: 1.5;" x1="687.5" x2="791.5" y1="923.9531" y2="923.9531"/><ellipse cx="697.5" cy="934.9531" fill="none" rx="3" ry="3" style="stroke: #038048; stroke-width: 1.0;"/><text fill="#000000" font-family="sans-serif" font-size="11" lengthAdjust="spacingAndGlyphs" textLength="80" x="706.5" y="938.1636">BallType color</text><line style="stroke: #A80036; stroke-width: 1.5;" x1="687.5" x2="791.5" y1="944.7578" y2="944.7578"/><!--MD5=[a716d834c9fc8c0bf0278f6285498a8c]
class Pin--><rect fill="#FEFECE" filter="url(#fo12zmn5yq3al)" height="60.8047" id="Pin" style="stroke: #A80036; stroke-width: 1.5;" width="102" x="827.5" y="891.9531"/><ellipse cx="865.45" cy="907.9531" fill="#ADD1B2" rx="11" ry="11" style="stroke: #A80036; stroke-width: 1.0;"/><path d="M868.4188,913.5938 Q867.8406,913.8906 867.2,914.0391 Q866.5594,914.1875 865.8563,914.1875 Q863.3563,914.1875 862.0359,912.5391 Q860.7156,910.8906 860.7156,907.7656 Q860.7156,904.6406 862.0359,902.9844 Q863.3563,901.3281 865.8563,901.3281 Q866.5594,901.3281 867.2078,901.4844 Q867.8563,901.6406 868.4188,901.9375 L868.4188,904.6563 Q867.7938,904.0781 867.2,903.8047 Q866.6063,903.5313 865.9813,903.5313 Q864.6375,903.5313 863.95,904.6016 Q863.2625,905.6719 863.2625,907.7656 Q863.2625,909.8594 863.95,910.9297 Q864.6375,912 865.9813,912 Q866.6063,912 867.2,911.7266 Q867.7938,911.4531 868.4188,910.875 L868.4188,913.5938 Z "/><text fill="#000000" font-family="sans-serif" font-size="12" lengthAdjust="spacingAndGlyphs" textLength="19" x="884.55" y="912.1074">Pin</text><line style="stroke: #A80036; stroke-width: 1.5;" x1="828.5" x2="928.5" y1="923.9531" y2="923.9531"/><ellipse cx="838.5" cy="934.9531" fill="none" rx="3" ry="3" style="stroke: #038048; stroke-width: 1.0;"/><text fill="#000000" font-family="sans-serif" font-size="11" lengthAdjust="spacingAndGlyphs" textLength="76" x="847.5" y="938.1636">PinType color</text><line style="stroke: #A80036; stroke-width: 1.5;" x1="828.5" x2="928.5" y1="944.7578" y2="944.7578"/><!--MD5=[d7181753b2361e79a820683323bfbfe9]
class BallType--><rect fill="#FEFECE" filter="url(#fo12zmn5yq3al)" height="48" id="BallType" style="stroke: #A80036; stroke-width: 1.5;" width="83" x="698" y="1073.9531"/><ellipse cx="713" cy="1089.9531" fill="#EB937F" rx="11" ry="11" style="stroke: #A80036; stroke-width: 1.0;"/><path d="M717.1094,1095.9531 L709.3906,1095.9531 L709.3906,1083.5625 L717.1094,1083.5625 L717.1094,1085.7188 L711.8438,1085.7188 L711.8438,1088.3906 L716.6094,1088.3906 L716.6094,1090.5469 L711.8438,1090.5469 L711.8438,1093.7969 L717.1094,1093.7969 L717.1094,1095.9531 Z "/><text fill="#000000" font-family="sans-serif" font-size="12" lengthAdjust="spacingAndGlyphs" textLength="51" x="727" y="1094.1074">BallType</text><line style="stroke: #A80036; stroke-width: 1.5;" x1="699" x2="780" y1="1105.9531" y2="1105.9531"/><line style="stroke: #A80036; stroke-width: 1.5;" x1="699" x2="780" y1="1113.9531" y2="1113.9531"/><!--MD5=[b6975da878d353bfcec6e73e23e02106]
class PinType--><rect fill="#FEFECE" filter="url(#fo12zmn5yq3al)" height="48" id="PinType" style="stroke: #A80036; stroke-width: 1.5;" width="80" x="838.5" y="1073.9531"/><ellipse cx="853.5" cy="1089.9531" fill="#EB937F" rx="11" ry="11" style="stroke: #A80036; stroke-width: 1.0;"/><path d="M857.6094,1095.9531 L849.8906,1095.9531 L849.8906,1083.5625 L857.6094,1083.5625 L857.6094,1085.7188 L852.3438,1085.7188 L852.3438,1088.3906 L857.1094,1088.3906 L857.1094,1090.5469 L852.3438,1090.5469 L852.3438,1093.7969 L857.6094,1093.7969 L857.6094,1095.9531 Z "/><text fill="#000000" font-family="sans-serif" font-size="12" lengthAdjust="spacingAndGlyphs" textLength="48" x="867.5" y="1094.1074">PinType</text><line style="stroke: #A80036; stroke-width: 1.5;" x1="839.5" x2="917.5" y1="1105.9531" y2="1105.9531"/><line style="stroke: #A80036; stroke-width: 1.5;" x1="839.5" x2="917.5" y1="1113.9531" y2="1113.9531"/><!--MD5=[6b6b9e8ceff4e9e58f06e15491e15318]
link Game to Player--><path d="M467.4327,124.5296 C467.4327,124.5296 402.6713,207.4408 378.4238,238.4838 " fill="none" id="Game-Player" style="stroke: #A80036; stroke-width: 1.0;"/><polygon fill="#A80036" points="370.3708,248.7937,379.0632,244.1632,373.4486,244.8533,372.7586,239.2387,370.3708,248.7937" style="stroke: #A80036; stroke-width: 1.0;"/><line style="stroke: #A80036; stroke-width: 1.0;" x1="373.4486" x2="378.3732" y1="244.8533" y2="238.5486"/><polygon fill="#A80036" points="474.8196,115.0726,467.9738,117.3388,467.4327,124.5296,474.2785,122.2634,474.8196,115.0726" style="stroke: #A80036; stroke-width: 1.0;"/><!--MD5=[64ae1000c36cefe67a281dae92f37e40]
link Game to Dashboard--><path d="M549.0794,124.5753 C549.0794,124.5753 603.4593,195.0938 626.5508,225.0383 " fill="none" id="Game-Dashboard" style="stroke: #A80036; stroke-width: 1.0;"/><polygon fill="#A80036" points="634.7323,235.6479,632.404,226.0782,631.679,231.6884,626.0688,230.9635,634.7323,235.6479" style="stroke: #A80036; stroke-width: 1.0;"/><line style="stroke: #A80036; stroke-width: 1.0;" x1="631.679" x2="626.7937" y1="231.6884" y2="225.3533"/><polygon fill="#A80036" points="541.7514,115.0726,542.2479,122.2666,549.0794,124.5753,548.583,117.3813,541.7514,115.0726" style="stroke: #A80036; stroke-width: 1.0;"/><!--MD5=[0fc51ad3fdfcf6453b1e0f8b19e98430]
link Game to Result--><path d="M508.5,127.083 C508.5,127.083 508.5,224.0444 508.5,272.9531 C508.5,272.9531 508.5,272.9531 508.5,559.9531 C508.5,634.5774 509.9765,659.4217 472.5,723.9531 C460.8276,744.052 442.7022,762.004 425.542,776.1009 " fill="none" id="Game-Result" style="stroke: #A80036; stroke-width: 1.0;"/><polygon fill="#A80036" points="415.0484,784.3648,424.5938,781.939,418.9765,781.2713,419.6442,775.654,415.0484,784.3648" style="stroke: #A80036; stroke-width: 1.0;"/><line style="stroke: #A80036; stroke-width: 1.0;" x1="418.9765" x2="425.2616" y1="781.2713" y2="776.3217"/><polygon fill="#A80036" points="508.5,115.083,504.5,121.083,508.5,127.083,512.5,121.083,508.5,115.083" style="stroke: #A80036; stroke-width: 1.0;"/><!--MD5=[9613ad9108b1ca084f7663e12174c739]
reverse link Player to Defender--><path d="M351.5,317.4115 C351.5,336.7146 351.5,358.8432 351.5,376.2725 " fill="none" id="Player&lt;-Defender" style="stroke: #A80036; stroke-width: 1.0;"/><polygon fill="none" points="344.5001,317.2195,351.5,297.2195,358.5001,317.2195,344.5001,317.2195" style="stroke: #A80036; stroke-width: 1.0;"/><!--MD5=[3f12853e2e7f2a57d09d073562e26780]
reverse link Player to Attacker--><path d="M298.5524,302.0309 C262.3213,321.9283 213.9759,348.4786 174.9836,369.8924 " fill="none" id="Player&lt;-Attacker" style="stroke: #A80036; stroke-width: 1.0;"/><polygon fill="none" points="295.3809,295.7865,316.2809,292.2947,302.1201,308.0578,295.3809,295.7865" style="stroke: #A80036; stroke-width: 1.0;"/><!--MD5=[98c4438cc838c45be0378faf42be9432]
reverse link Combination to PublicCombination--><path d="M181.5338,630.4295 C165.475,646.84 149.4502,663.2156 136.9903,675.9484 " fill="none" id="Combination&lt;-PublicCombination" style="stroke: #A80036; stroke-width: 1.0;"/><polygon fill="none" points="176.575,625.4884,195.5662,616.0898,186.5811,635.2801,176.575,625.4884" style="stroke: #A80036; stroke-width: 1.0;"/><!--MD5=[ed81d3472c9069d2de3c2f5cd308846f]
reverse link Combination to SecretCombination--><path d="M315.8971,630.9267 C330.8646,647.1705 345.7676,663.3443 357.3814,675.9484 " fill="none" id="Combination&lt;-SecretCombination" style="stroke: #A80036; stroke-width: 1.0;"/><polygon fill="none" points="310.6306,635.5413,302.2259,616.0898,320.9263,626.0546,310.6306,635.5413" style="stroke: #A80036; stroke-width: 1.0;"/><!--MD5=[f882132b38e96d18b0f693501c3501a3]
link Combination to Result--><path d="M255.9416,628.0958 C255.9416,628.0958 269.9222,695.4075 286.5,723.9531 C298.1724,744.052 316.2978,762.004 333.458,776.1009 " fill="none" id="Combination-Result" style="stroke: #A80036; stroke-width: 1.0;"/><polygon fill="#A80036" points="343.9516,784.3648,339.3558,775.654,340.0235,781.2713,334.4062,781.939,343.9516,784.3648" style="stroke: #A80036; stroke-width: 1.0;"/><line style="stroke: #A80036; stroke-width: 1.0;" x1="340.0235" x2="333.7384" y1="781.2713" y2="776.3217"/><polygon fill="#FFFFFF" points="254.2474,616.216,251.1346,622.7207,255.9416,628.0958,259.0544,621.5912,254.2474,616.216" style="stroke: #A80036; stroke-width: 1.0;"/><!--MD5=[28941e5ccf936e44ae3dbfe2f217db1a]
link Defender to SecretCombination--><path d="M355.9853,449.4607 C355.9853,449.4607 359.8065,486.5769 361.5,503.9531 C366.8846,559.2018 372.6836,623.2569 376.2028,662.6946 " fill="none" id="Defender-SecretCombination" style="stroke: #A80036; stroke-width: 1.0;"/><polygon fill="#A80036" points="377.3696,675.8056,380.5559,666.4864,376.9263,670.8253,372.5874,667.1957,377.3696,675.8056" style="stroke: #A80036; stroke-width: 1.0;"/><line style="stroke: #A80036; stroke-width: 1.0;" x1="376.9263" x2="376.2171" y1="670.8253" y2="662.8568"/><polygon fill="#A80036" points="354.7399,437.5255,351.3842,443.9082,355.9853,449.4607,359.341,443.078,354.7399,437.5255" style="stroke: #A80036; stroke-width: 1.0;"/><!--MD5=[a08752bca5276f74ff74bd5b9f8aeb2c]
link Attacker to PublicCombination--><path d="M108.5057,456.0593 C108.5057,456.0593 111.6696,610.5679 112.737,662.6914 " fill="none" id="Attacker-PublicCombination" style="stroke: #A80036; stroke-width: 1.0;"/><polygon fill="#A80036" points="113.0072,675.8901,116.8221,666.8101,112.9048,670.8912,108.8238,666.9739,113.0072,675.8901" style="stroke: #A80036; stroke-width: 1.0;"/><line style="stroke: #A80036; stroke-width: 1.0;" x1="112.9048" x2="112.741" y1="670.8912" y2="662.8929"/><polygon fill="#A80036" points="108.2599,444.0618,104.3836,450.1425,108.5057,456.0593,112.382,449.9786,108.2599,444.0618" style="stroke: #A80036; stroke-width: 1.0;"/><!--MD5=[5b92ad1821473e8015ec136aa580d2d1]
link Dashboard to Row--><path d="M651.0732,321.8088 C651.0732,321.8088 612.8226,472.1915 599.8565,523.1679 " fill="none" id="Dashboard-Row" style="stroke: #A80036; stroke-width: 1.0;"/><polygon fill="#A80036" points="596.6461,535.7898,602.7413,528.0536,597.8787,530.9441,594.9882,526.0815,596.6461,535.7898" style="stroke: #A80036; stroke-width: 1.0;"/><line style="stroke: #A80036; stroke-width: 1.0;" x1="597.8787" x2="599.8507" y1="530.9441" y2="523.191"/><polygon fill="#A80036" points="654.0314,310.1791,648.6758,315.0079,651.0732,321.8088,656.4289,316.98,654.0314,310.1791" style="stroke: #A80036; stroke-width: 1.0;"/><!--MD5=[992641703e1af1ed851eedcb9b76b8c2]
link Dashboard to Column--><path d="M668.6388,322.1141 C668.6388,322.1141 684.2603,471.5598 689.5897,522.545 " fill="none" id="Dashboard-Column" style="stroke: #A80036; stroke-width: 1.0;"/><polygon fill="#A80036" points="690.9742,535.7898,694.0168,526.4227,690.4544,530.8169,686.0602,527.2545,690.9742,535.7898" style="stroke: #A80036; stroke-width: 1.0;"/><line style="stroke: #A80036; stroke-width: 1.0;" x1="690.4544" x2="689.6227" y1="530.8169" y2="522.8603"/><polygon fill="#A80036" points="667.3912,310.1791,664.0367,316.5625,668.6388,322.1141,671.9933,315.7307,667.3912,310.1791" style="stroke: #A80036; stroke-width: 1.0;"/><!--MD5=[05c1e421adbc9c64d5dfc3a438e0c51b]
link Dashboard to Storage--><path d="M687.7189,320.8898 C687.7189,320.8898 764.6078,473.0767 790.3792,524.0864 " fill="none" id="Dashboard-Storage" style="stroke: #A80036; stroke-width: 1.0;"/><polygon fill="#A80036" points="796.292,535.7898,795.8037,525.9531,794.0373,531.3271,788.6633,529.5606,796.292,535.7898" style="stroke: #A80036; stroke-width: 1.0;"/><line style="stroke: #A80036; stroke-width: 1.0;" x1="794.0373" x2="790.4298" y1="531.3271" y2="524.1866"/><polygon fill="#A80036" points="682.3076,310.1791,681.443,317.3382,687.7189,320.8898,688.5835,313.7307,682.3076,310.1791" style="stroke: #A80036; stroke-width: 1.0;"/><!--MD5=[670014b2122ec58810837c5558170709]
link Storage to Token--><path d="M808.5,596.1839 C808.5,596.1839 808.5,723.683 808.5,770.5016 " fill="none" id="Storage-Token" style="stroke: #A80036; stroke-width: 1.0;"/><polygon fill="#A80036" points="808.5,783.6239,812.5,774.6239,808.5,778.6239,804.5,774.6239,808.5,783.6239" style="stroke: #A80036; stroke-width: 1.0;"/><line style="stroke: #A80036; stroke-width: 1.0;" x1="808.5" x2="808.5001" y1="778.6239" y2="770.624"/><polygon fill="#FFFFFF" points="808.5,584.1839,804.5,590.1839,808.5,596.1839,812.5,590.1839,808.5,584.1839" style="stroke: #A80036; stroke-width: 1.0;"/><!--MD5=[05e542a4cd51e185ae309142bd33a0ac]
reverse link Token to Ball--><path d="M783.5613,849.337 C775.0812,863.409 765.7643,878.8695 757.8909,891.9349 " fill="none" id="Token&lt;-Ball" style="stroke: #A80036; stroke-width: 1.0;"/><polygon fill="none" points="777.7169,845.4731,794.0353,831.9561,789.7079,852.6991,777.7169,845.4731" style="stroke: #A80036; stroke-width: 1.0;"/><!--MD5=[f7d024ab6cab7ad84aeb93804bb46458]
reverse link Token to Pin--><path d="M833.8002,849.337 C842.4032,863.409 851.855,878.8695 859.8426,891.9349 " fill="none" id="Token&lt;-Pin" style="stroke: #A80036; stroke-width: 1.0;"/><polygon fill="none" points="827.634,852.6711,823.1743,831.9561,839.5787,845.3686,827.634,852.6711" style="stroke: #A80036; stroke-width: 1.0;"/><!--MD5=[5904698ff764574c0f2ab534eb0f59d0]
link Ball to BallType--><path d="M739.5,953.0229 C739.5,985.5155 739.5,1036.535 739.5,1068.5684 " fill="none" id="Ball-&gt;BallType" style="stroke: #A80036; stroke-width: 1.0;"/><polygon fill="#A80036" points="739.5,1073.93,743.5,1064.93,739.5,1068.93,735.5,1064.93,739.5,1073.93" style="stroke: #A80036; stroke-width: 1.0;"/><!--MD5=[ed350ae35f23a69fb4835c51f7f5bbf7]
link Pin to PinType--><path d="M878.5,953.0229 C878.5,985.5155 878.5,1036.535 878.5,1068.5684 " fill="none" id="Pin-&gt;PinType" style="stroke: #A80036; stroke-width: 1.0;"/><polygon fill="#A80036" points="878.5,1073.93,882.5,1064.93,878.5,1068.93,874.5,1064.93,878.5,1073.93" style="stroke: #A80036; stroke-width: 1.0;"/><!--MD5=[54d012aae15f6114eb10f4fb33a8886a]
@startuml
title MasterMind - Class Diagram

class Game {
  + Player [ ] players
  + Dashboard dashboard
  + Result result
}
class Player {

}

class Attacker {
 +PublicCombination combination
 +Int lifes
}
class Defender {
 +SecretCombination combination
    
}
class Dashboard {
  + Row [ ] rows
  + Columns [ ] columns
  }
class Row
class Column
class Token
class Storage
class Combination {
 + Ball [ ] combination
 + Result result
 + void setCombination() 
 + Ball [ ] getCombination()
 + Result validateCombination() 
}
class PublicCombination
class SecretCombination
class Result
class Ball{ 
 + BallType color
}
class Pin {
 + PinType color
}

enum BallType 
enum PinType

Game *- - -> Player
Game *- - -> Dashboard
Game *- - -> Result

Player <|- -  Defender
Player <|- -  Attacker

Combination <|- - PublicCombination
Combination <|- - SecretCombination
Combination o- - -> Result

Defender *- - -> SecretCombination
Attacker *- - -> PublicCombination

Dashboard *- - -> Row
Dashboard *- - -> Column
Dashboard *- - -> Storage

Storage o- - -> Token

Token <|- - Ball
Token <|- - Pin

Ball - - -> BallType
Pin - - -> PinType
@enduml

PlantUML version 1.2019.10(Fri Sep 13 20:53:03 UTC 2019)
(GPL source distribution)
Java Runtime: OpenJDK Runtime Environment
JVM: OpenJDK 64-Bit Server VM
Java Version: 1.8.0_222-heroku-b10
Operating System: Linux
Default Encoding: UTF-8
Language: en
Country: US
--></g></svg>