<?xml version="1.0" encoding="UTF-8" standalone="no"?><svg xmlns="http://www.w3.org/2000/svg" xmlns:xlink="http://www.w3.org/1999/xlink" contentScriptType="application/ecmascript" contentStyleType="text/css" height="780px" preserveAspectRatio="none" style="width:632px;height:780px;" version="1.1" viewBox="0 0 632 780" width="632px" zoomAndPan="magnify"><defs><filter height="300%" id="f1cjz7ysiyozic" width="300%" x="-1" y="-1"><feGaussianBlur result="blurOut" stdDeviation="2.0"/><feColorMatrix in="blurOut" result="blurOut2" type="matrix" values="0 0 0 0 0 0 0 0 0 0 0 0 0 0 0 0 0 0 .4 0"/><feOffset dx="4.0" dy="4.0" in="blurOut2" result="blurOut3"/><feBlend in="SourceGraphic" in2="blurOut3" mode="normal"/></filter></defs><g><!--MD5=[7283a9eed84464550b6d5ebf39c68b05]
class Mastermind--><rect fill="#FEFECE" filter="url(#f1cjz7ysiyozic)" height="60.8047" id="Mastermind" style="stroke: #A80036; stroke-width: 1.5;" width="105" x="115.5" y="8"/><ellipse cx="130.5" cy="24" fill="#ADD1B2" rx="11" ry="11" style="stroke: #A80036; stroke-width: 1.0;"/><path d="M132.8438,19.6719 L133.0156,19.75 C133.2344,19.4375 133.4375,19.3438 133.7344,19.3438 C134.0313,19.3438 134.3125,19.4844 134.4688,19.75 C134.5625,19.9063 134.5781,20.0313 134.5781,20.4688 L134.5781,21.8906 C134.5781,22.3125 134.5469,22.5 134.4375,22.6563 C134.2656,22.875 134,23.0156 133.7344,23.0156 C133.5156,23.0156 133.2813,22.9063 133.1406,22.7656 C133,22.6406 132.9688,22.5156 132.9063,22.1094 C132.8125,21.7031 132.6406,21.4844 132.1563,21.2031 C131.6875,20.9531 131.0781,20.7969 130.5,20.7969 C128.7656,20.7969 127.5156,22.1094 127.5156,23.8906 L127.5156,24.9844 C127.5156,26.6875 128.8125,27.7813 130.8594,27.7813 C131.625,27.7813 132.3125,27.6563 132.7344,27.3906 C132.9219,27.2969 132.9219,27.2969 133.375,26.8125 C133.5625,26.625 133.7656,26.5469 133.9844,26.5469 C134.4531,26.5469 134.8438,26.9375 134.8438,27.3906 C134.8438,27.7813 134.5156,28.2344 133.9375,28.6406 C133.1875,29.1875 132.0313,29.4844 130.8125,29.4844 C127.9219,29.4844 125.8125,27.5938 125.8125,25.0156 L125.8125,23.8906 C125.8125,21.1719 127.8125,19.0938 130.4375,19.0938 C131.3125,19.0938 131.9063,19.2344 132.8438,19.6719 Z "/><text fill="#000000" font-family="sans-serif" font-size="12" lengthAdjust="spacingAndGlyphs" textLength="73" x="144.5" y="28.1543">Mastermind</text><line style="stroke: #A80036; stroke-width: 1.5;" x1="116.5" x2="219.5" y1="40" y2="40"/><line style="stroke: #A80036; stroke-width: 1.5;" x1="116.5" x2="219.5" y1="48" y2="48"/><text fill="#000000" font-family="sans-serif" font-size="11" lengthAdjust="spacingAndGlyphs" textLength="31" x="121.5" y="62.2104">play()</text><!--MD5=[91d8b2454a0b582f517bc88585e89d85]
class SecretPlayer--><rect fill="#FEFECE" filter="url(#f1cjz7ysiyozic)" height="99.2188" id="SecretPlayer" style="stroke: #A80036; stroke-width: 1.5;" width="181" x="149.5" y="129"/><ellipse cx="196.25" cy="145" fill="#ADD1B2" rx="11" ry="11" style="stroke: #A80036; stroke-width: 1.0;"/><path d="M198.5938,140.6719 L198.7656,140.75 C198.9844,140.4375 199.1875,140.3438 199.4844,140.3438 C199.7813,140.3438 200.0625,140.4844 200.2188,140.75 C200.3125,140.9063 200.3281,141.0313 200.3281,141.4688 L200.3281,142.8906 C200.3281,143.3125 200.2969,143.5 200.1875,143.6563 C200.0156,143.875 199.75,144.0156 199.4844,144.0156 C199.2656,144.0156 199.0313,143.9063 198.8906,143.7656 C198.75,143.6406 198.7188,143.5156 198.6563,143.1094 C198.5625,142.7031 198.3906,142.4844 197.9063,142.2031 C197.4375,141.9531 196.8281,141.7969 196.25,141.7969 C194.5156,141.7969 193.2656,143.1094 193.2656,144.8906 L193.2656,145.9844 C193.2656,147.6875 194.5625,148.7813 196.6094,148.7813 C197.375,148.7813 198.0625,148.6563 198.4844,148.3906 C198.6719,148.2969 198.6719,148.2969 199.125,147.8125 C199.3125,147.625 199.5156,147.5469 199.7344,147.5469 C200.2031,147.5469 200.5938,147.9375 200.5938,148.3906 C200.5938,148.7813 200.2656,149.2344 199.6875,149.6406 C198.9375,150.1875 197.7813,150.4844 196.5625,150.4844 C193.6719,150.4844 191.5625,148.5938 191.5625,146.0156 L191.5625,144.8906 C191.5625,142.1719 193.5625,140.0938 196.1875,140.0938 C197.0625,140.0938 197.6563,140.2344 198.5938,140.6719 Z "/><text fill="#000000" font-family="sans-serif" font-size="12" lengthAdjust="spacingAndGlyphs" textLength="79" x="216.75" y="149.1543">SecretPlayer</text><line style="stroke: #A80036; stroke-width: 1.5;" x1="150.5" x2="329.5" y1="161" y2="161"/><line style="stroke: #A80036; stroke-width: 1.5;" x1="150.5" x2="329.5" y1="169" y2="169"/><text fill="#000000" font-family="sans-serif" font-size="11" lengthAdjust="spacingAndGlyphs" textLength="169" x="155.5" y="183.2104">SecretPlayer(ProposedPlayer)</text><text fill="#000000" font-family="sans-serif" font-size="11" lengthAdjust="spacingAndGlyphs" textLength="130" x="155.5" y="196.0151">generateCombination()</text><text fill="#000000" font-family="sans-serif" font-size="11" lengthAdjust="spacingAndGlyphs" textLength="50" x="155.5" y="208.8198">answer()</text><text fill="#000000" font-family="sans-serif" font-size="11" lengthAdjust="spacingAndGlyphs" textLength="105" x="155.5" y="221.6245">printCombination()</text><!--MD5=[18bce57353c1a66686f2ea15471f8271]
class PublicPlayer--><rect fill="#FEFECE" filter="url(#f1cjz7ysiyozic)" height="150.4375" id="PublicPlayer" style="stroke: #A80036; stroke-width: 1.5;" width="180" x="6" y="288"/><ellipse cx="54.25" cy="304" fill="#ADD1B2" rx="11" ry="11" style="stroke: #A80036; stroke-width: 1.0;"/><path d="M56.5938,299.6719 L56.7656,299.75 C56.9844,299.4375 57.1875,299.3438 57.4844,299.3438 C57.7813,299.3438 58.0625,299.4844 58.2188,299.75 C58.3125,299.9063 58.3281,300.0313 58.3281,300.4688 L58.3281,301.8906 C58.3281,302.3125 58.2969,302.5 58.1875,302.6563 C58.0156,302.875 57.75,303.0156 57.4844,303.0156 C57.2656,303.0156 57.0313,302.9063 56.8906,302.7656 C56.75,302.6406 56.7188,302.5156 56.6563,302.1094 C56.5625,301.7031 56.3906,301.4844 55.9063,301.2031 C55.4375,300.9531 54.8281,300.7969 54.25,300.7969 C52.5156,300.7969 51.2656,302.1094 51.2656,303.8906 L51.2656,304.9844 C51.2656,306.6875 52.5625,307.7813 54.6094,307.7813 C55.375,307.7813 56.0625,307.6563 56.4844,307.3906 C56.6719,307.2969 56.6719,307.2969 57.125,306.8125 C57.3125,306.625 57.5156,306.5469 57.7344,306.5469 C58.2031,306.5469 58.5938,306.9375 58.5938,307.3906 C58.5938,307.7813 58.2656,308.2344 57.6875,308.6406 C56.9375,309.1875 55.7813,309.4844 54.5625,309.4844 C51.6719,309.4844 49.5625,307.5938 49.5625,305.0156 L49.5625,303.8906 C49.5625,301.1719 51.5625,299.0938 54.1875,299.0938 C55.0625,299.0938 55.6563,299.2344 56.5938,299.6719 Z "/><text fill="#000000" font-family="sans-serif" font-size="12" lengthAdjust="spacingAndGlyphs" textLength="75" x="74.75" y="308.1543">PublicPlayer</text><line style="stroke: #A80036; stroke-width: 1.5;" x1="7" x2="185" y1="320" y2="320"/><text fill="#000000" font-family="sans-serif" font-size="11" lengthAdjust="spacingAndGlyphs" textLength="51" x="12" y="334.2104">attempts</text><line style="stroke: #A80036; stroke-width: 1.5;" x1="7" x2="185" y1="340.8047" y2="340.8047"/><text fill="#000000" font-family="sans-serif" font-size="11" lengthAdjust="spacingAndGlyphs" textLength="130" x="12" y="355.0151">generateCombination()</text><text fill="#000000" font-family="sans-serif" font-size="11" lengthAdjust="spacingAndGlyphs" textLength="139" x="12" y="367.8198">getLastProposedPlayer()</text><text fill="#000000" font-family="sans-serif" font-size="11" lengthAdjust="spacingAndGlyphs" textLength="80" x="12" y="380.6245">hasAttempts()</text><text fill="#000000" font-family="sans-serif" font-size="11" lengthAdjust="spacingAndGlyphs" textLength="87" x="12" y="393.4292">writeAttempts()</text><text fill="#000000" font-family="sans-serif" font-size="11" lengthAdjust="spacingAndGlyphs" textLength="168" x="12" y="406.2339">writeProposedCombinations()</text><text fill="#000000" font-family="sans-serif" font-size="11" lengthAdjust="spacingAndGlyphs" textLength="56" x="12" y="419.0386">isWinner()</text><text fill="#000000" font-family="sans-serif" font-size="11" lengthAdjust="spacingAndGlyphs" textLength="57" x="12" y="431.8433">isLooser()</text><!--MD5=[28491d17d5ee38c9c116625a5ffc259a]
class Combination--><rect fill="#FEFECE" filter="url(#f1cjz7ysiyozic)" height="48" id="Combination" style="stroke: #A80036; stroke-width: 1.5;" width="110" x="449" y="154.5"/><ellipse cx="464" cy="170.5" fill="#ADD1B2" rx="11" ry="11" style="stroke: #A80036; stroke-width: 1.0;"/><path d="M466.3438,166.1719 L466.5156,166.25 C466.7344,165.9375 466.9375,165.8438 467.2344,165.8438 C467.5313,165.8438 467.8125,165.9844 467.9688,166.25 C468.0625,166.4063 468.0781,166.5313 468.0781,166.9688 L468.0781,168.3906 C468.0781,168.8125 468.0469,169 467.9375,169.1563 C467.7656,169.375 467.5,169.5156 467.2344,169.5156 C467.0156,169.5156 466.7813,169.4063 466.6406,169.2656 C466.5,169.1406 466.4688,169.0156 466.4063,168.6094 C466.3125,168.2031 466.1406,167.9844 465.6563,167.7031 C465.1875,167.4531 464.5781,167.2969 464,167.2969 C462.2656,167.2969 461.0156,168.6094 461.0156,170.3906 L461.0156,171.4844 C461.0156,173.1875 462.3125,174.2813 464.3594,174.2813 C465.125,174.2813 465.8125,174.1563 466.2344,173.8906 C466.4219,173.7969 466.4219,173.7969 466.875,173.3125 C467.0625,173.125 467.2656,173.0469 467.4844,173.0469 C467.9531,173.0469 468.3438,173.4375 468.3438,173.8906 C468.3438,174.2813 468.0156,174.7344 467.4375,175.1406 C466.6875,175.6875 465.5313,175.9844 464.3125,175.9844 C461.4219,175.9844 459.3125,174.0938 459.3125,171.5156 L459.3125,170.3906 C459.3125,167.6719 461.3125,165.5938 463.9375,165.5938 C464.8125,165.5938 465.4063,165.7344 466.3438,166.1719 Z "/><text fill="#000000" font-family="sans-serif" font-size="12" lengthAdjust="spacingAndGlyphs" textLength="78" x="478" y="174.6543">Combination</text><line style="stroke: #A80036; stroke-width: 1.5;" x1="450" x2="558" y1="186.5" y2="186.5"/><line style="stroke: #A80036; stroke-width: 1.5;" x1="450" x2="558" y1="194.5" y2="194.5"/><!--MD5=[18eee71c88ab61f27581b8cbdd3ef5ee]
class Color--><rect fill="#FEFECE" filter="url(#f1cjz7ysiyozic)" height="48" id="Color" style="stroke: #A80036; stroke-width: 1.5;" width="64" x="557" y="339"/><ellipse cx="572" cy="355" fill="#EB937F" rx="11" ry="11" style="stroke: #A80036; stroke-width: 1.0;"/><path d="M570.2969,355.875 L570.2969,358.2969 L574.6563,358.2969 L574.6563,357.4219 C574.6563,356.9375 574.6875,356.7969 574.7969,356.6406 C574.9688,356.3906 575.2344,356.2813 575.5,356.2813 C575.7813,356.2813 576.0625,356.4375 576.2344,356.6875 C576.3125,356.8438 576.3438,356.9844 576.3438,357.4219 L576.3438,360 L568.3438,360 C567.9531,360 567.7188,359.9531 567.5781,359.8281 C567.3594,359.6719 567.2188,359.4219 567.2188,359.1563 C567.2188,358.8594 567.375,358.5938 567.625,358.4219 C567.7813,358.3125 567.9375,358.2969 568.3438,358.2969 L568.5938,358.2969 L568.5938,351.7813 L568.3438,351.7813 C567.9219,351.7813 567.7344,351.75 567.5781,351.6406 C567.3594,351.4688 567.2188,351.2188 567.2188,350.9375 C567.2188,350.6563 567.375,350.3594 567.625,350.2031 C567.7813,350.1094 567.9063,350.0938 568.3438,350.0938 L575.9688,350.0938 L575.9688,352.6406 C575.9688,353.1094 575.9375,353.25 575.8281,353.4219 C575.6563,353.6406 575.3906,353.7813 575.125,353.7813 C574.8438,353.7813 574.5625,353.625 574.3906,353.375 C574.3125,353.2188 574.2813,353.0469 574.2813,352.6406 L574.2813,351.7813 L570.2969,351.7813 L570.2969,354.1875 L571.75,354.1875 L571.75,354.0625 C571.75,353.6094 571.7813,353.4531 571.8906,353.2813 C572.0625,353.0625 572.3281,352.9219 572.5781,352.9219 C573.0313,352.9219 573.3438,353.2344 573.4063,353.7031 C573.4219,353.8594 573.4219,353.9063 573.4219,354.0625 L573.4219,355.9844 C573.4219,356.4375 573.3906,356.5938 573.2656,356.75 C573.1094,356.9688 572.8438,357.1094 572.5938,357.1094 C572.2969,357.1094 572.0156,356.9531 571.8594,356.7031 C571.7813,356.5469 571.75,356.3906 571.75,355.9844 L571.75,355.875 Z "/><text fill="#000000" font-family="sans-serif" font-size="12" lengthAdjust="spacingAndGlyphs" textLength="32" x="586" y="359.1543">Color</text><line style="stroke: #A80036; stroke-width: 1.5;" x1="558" x2="620" y1="371" y2="371"/><line style="stroke: #A80036; stroke-width: 1.5;" x1="558" x2="620" y1="379" y2="379"/><!--MD5=[e370ee5c0c15ce04544d5f5a73174d72]
class SecretCombination--><rect fill="#FEFECE" filter="url(#f1cjz7ysiyozic)" height="86.4141" id="SecretCombination" style="stroke: #A80036; stroke-width: 1.5;" width="230" x="221" y="320"/><ellipse cx="272.25" cy="336" fill="#ADD1B2" rx="11" ry="11" style="stroke: #A80036; stroke-width: 1.0;"/><path d="M274.5938,331.6719 L274.7656,331.75 C274.9844,331.4375 275.1875,331.3438 275.4844,331.3438 C275.7813,331.3438 276.0625,331.4844 276.2188,331.75 C276.3125,331.9063 276.3281,332.0313 276.3281,332.4688 L276.3281,333.8906 C276.3281,334.3125 276.2969,334.5 276.1875,334.6563 C276.0156,334.875 275.75,335.0156 275.4844,335.0156 C275.2656,335.0156 275.0313,334.9063 274.8906,334.7656 C274.75,334.6406 274.7188,334.5156 274.6563,334.1094 C274.5625,333.7031 274.3906,333.4844 273.9063,333.2031 C273.4375,332.9531 272.8281,332.7969 272.25,332.7969 C270.5156,332.7969 269.2656,334.1094 269.2656,335.8906 L269.2656,336.9844 C269.2656,338.6875 270.5625,339.7813 272.6094,339.7813 C273.375,339.7813 274.0625,339.6563 274.4844,339.3906 C274.6719,339.2969 274.6719,339.2969 275.125,338.8125 C275.3125,338.625 275.5156,338.5469 275.7344,338.5469 C276.2031,338.5469 276.5938,338.9375 276.5938,339.3906 C276.5938,339.7813 276.2656,340.2344 275.6875,340.6406 C274.9375,341.1875 273.7813,341.4844 272.5625,341.4844 C269.6719,341.4844 267.5625,339.5938 267.5625,337.0156 L267.5625,335.8906 C267.5625,333.1719 269.5625,331.0938 272.1875,331.0938 C273.0625,331.0938 273.6563,331.2344 274.5938,331.6719 Z "/><text fill="#000000" font-family="sans-serif" font-size="12" lengthAdjust="spacingAndGlyphs" textLength="119" x="292.75" y="340.1543">SecretCombination</text><line style="stroke: #A80036; stroke-width: 1.5;" x1="222" x2="450" y1="352" y2="352"/><line style="stroke: #A80036; stroke-width: 1.5;" x1="222" x2="450" y1="360" y2="360"/><text fill="#000000" font-family="sans-serif" font-size="11" lengthAdjust="spacingAndGlyphs" textLength="182" x="227" y="374.2104">SecretCombination() // aleatorio</text><text fill="#000000" font-family="sans-serif" font-size="11" lengthAdjust="spacingAndGlyphs" textLength="218" x="227" y="387.0151">calculateResult(ProposedCombination)</text><text fill="#000000" font-family="sans-serif" font-size="11" lengthAdjust="spacingAndGlyphs" textLength="36" x="227" y="399.8198">write()</text><!--MD5=[3e8d429d1e6ded7219c9e40ba733f3d0]
class PublicCombination--><rect fill="#FEFECE" filter="url(#f1cjz7ysiyozic)" height="112.0234" id="PublicCombination" style="stroke: #A80036; stroke-width: 1.5;" width="147" x="325.5" y="498"/><ellipse cx="340.5" cy="514" fill="#ADD1B2" rx="11" ry="11" style="stroke: #A80036; stroke-width: 1.0;"/><path d="M342.8438,509.6719 L343.0156,509.75 C343.2344,509.4375 343.4375,509.3438 343.7344,509.3438 C344.0313,509.3438 344.3125,509.4844 344.4688,509.75 C344.5625,509.9063 344.5781,510.0313 344.5781,510.4688 L344.5781,511.8906 C344.5781,512.3125 344.5469,512.5 344.4375,512.6563 C344.2656,512.875 344,513.0156 343.7344,513.0156 C343.5156,513.0156 343.2813,512.9063 343.1406,512.7656 C343,512.6406 342.9688,512.5156 342.9063,512.1094 C342.8125,511.7031 342.6406,511.4844 342.1563,511.2031 C341.6875,510.9531 341.0781,510.7969 340.5,510.7969 C338.7656,510.7969 337.5156,512.1094 337.5156,513.8906 L337.5156,514.9844 C337.5156,516.6875 338.8125,517.7813 340.8594,517.7813 C341.625,517.7813 342.3125,517.6563 342.7344,517.3906 C342.9219,517.2969 342.9219,517.2969 343.375,516.8125 C343.5625,516.625 343.7656,516.5469 343.9844,516.5469 C344.4531,516.5469 344.8438,516.9375 344.8438,517.3906 C344.8438,517.7813 344.5156,518.2344 343.9375,518.6406 C343.1875,519.1875 342.0313,519.4844 340.8125,519.4844 C337.9219,519.4844 335.8125,517.5938 335.8125,515.0156 L335.8125,513.8906 C335.8125,511.1719 337.8125,509.0938 340.4375,509.0938 C341.3125,509.0938 341.9063,509.2344 342.8438,509.6719 Z "/><text fill="#000000" font-family="sans-serif" font-size="12" lengthAdjust="spacingAndGlyphs" textLength="115" x="354.5" y="518.1543">PublicCombination</text><line style="stroke: #A80036; stroke-width: 1.5;" x1="326.5" x2="471.5" y1="530" y2="530"/><line style="stroke: #A80036; stroke-width: 1.5;" x1="326.5" x2="471.5" y1="538" y2="538"/><text fill="#000000" font-family="sans-serif" font-size="11" lengthAdjust="spacingAndGlyphs" textLength="34" x="331.5" y="552.2104">read()</text><text fill="#000000" font-family="sans-serif" font-size="11" lengthAdjust="spacingAndGlyphs" textLength="95" x="331.5" y="565.0151">calculateBlacks()</text><text fill="#000000" font-family="sans-serif" font-size="11" lengthAdjust="spacingAndGlyphs" textLength="95" x="331.5" y="577.8198">calculateWhites()</text><text fill="#000000" font-family="sans-serif" font-size="11" lengthAdjust="spacingAndGlyphs" textLength="61" x="331.5" y="590.6245">set(Result)</text><text fill="#000000" font-family="sans-serif" font-size="11" lengthAdjust="spacingAndGlyphs" textLength="56" x="331.5" y="603.4292">isWinner()</text><!--MD5=[2741598bdf59a7d7e0d5c97658fd3022]
class Result--><rect fill="#FEFECE" filter="url(#f1cjz7ysiyozic)" height="99.2188" id="Result" style="stroke: #A80036; stroke-width: 1.5;" width="71" x="299.5" y="670"/><ellipse cx="314.5" cy="686" fill="#ADD1B2" rx="11" ry="11" style="stroke: #A80036; stroke-width: 1.0;"/><path d="M316.8438,681.6719 L317.0156,681.75 C317.2344,681.4375 317.4375,681.3438 317.7344,681.3438 C318.0313,681.3438 318.3125,681.4844 318.4688,681.75 C318.5625,681.9063 318.5781,682.0313 318.5781,682.4688 L318.5781,683.8906 C318.5781,684.3125 318.5469,684.5 318.4375,684.6563 C318.2656,684.875 318,685.0156 317.7344,685.0156 C317.5156,685.0156 317.2813,684.9063 317.1406,684.7656 C317,684.6406 316.9688,684.5156 316.9063,684.1094 C316.8125,683.7031 316.6406,683.4844 316.1563,683.2031 C315.6875,682.9531 315.0781,682.7969 314.5,682.7969 C312.7656,682.7969 311.5156,684.1094 311.5156,685.8906 L311.5156,686.9844 C311.5156,688.6875 312.8125,689.7813 314.8594,689.7813 C315.625,689.7813 316.3125,689.6563 316.7344,689.3906 C316.9219,689.2969 316.9219,689.2969 317.375,688.8125 C317.5625,688.625 317.7656,688.5469 317.9844,688.5469 C318.4531,688.5469 318.8438,688.9375 318.8438,689.3906 C318.8438,689.7813 318.5156,690.2344 317.9375,690.6406 C317.1875,691.1875 316.0313,691.4844 314.8125,691.4844 C311.9219,691.4844 309.8125,689.5938 309.8125,687.0156 L309.8125,685.8906 C309.8125,683.1719 311.8125,681.0938 314.4375,681.0938 C315.3125,681.0938 315.9063,681.2344 316.8438,681.6719 Z "/><text fill="#000000" font-family="sans-serif" font-size="12" lengthAdjust="spacingAndGlyphs" textLength="39" x="328.5" y="690.1543">Result</text><line style="stroke: #A80036; stroke-width: 1.5;" x1="300.5" x2="369.5" y1="702" y2="702"/><text fill="#000000" font-family="sans-serif" font-size="11" lengthAdjust="spacingAndGlyphs" textLength="36" x="305.5" y="716.2104">blacks</text><text fill="#000000" font-family="sans-serif" font-size="11" lengthAdjust="spacingAndGlyphs" textLength="37" x="305.5" y="729.0151">whites</text><line style="stroke: #A80036; stroke-width: 1.5;" x1="300.5" x2="369.5" y1="735.6094" y2="735.6094"/><text fill="#000000" font-family="sans-serif" font-size="11" lengthAdjust="spacingAndGlyphs" textLength="36" x="305.5" y="749.8198">write()</text><text fill="#000000" font-family="sans-serif" font-size="11" lengthAdjust="spacingAndGlyphs" textLength="56" x="305.5" y="762.6245">isWinner()</text><!--MD5=[59169f0a9ce45fb0b0a67f6880d127f6]
link Mastermind to SecretPlayer--><path d="M188.9974,79.7427 C188.9974,79.7427 202.144,104.943 208.583,117.284 " fill="none" id="Mastermind-SecretPlayer" style="stroke: #A80036; stroke-width: 1.0;"/><polygon fill="#A80036" points="214.668,128.946,214.0507,119.1165,212.3549,124.5132,206.9582,122.8175,214.668,128.946" style="stroke: #A80036; stroke-width: 1.0;"/><line style="stroke: #A80036; stroke-width: 1.0;" x1="212.3549" x2="208.654" y1="124.5132" y2="117.421"/><polygon fill="#A80036" points="183.446,69.104,182.6755,76.2738,188.9974,79.7427,189.7679,72.5729,183.446,69.104" style="stroke: #A80036; stroke-width: 1.0;"/><!--MD5=[00c70f11185b03e5f0daac5f68ab9196]
link Mastermind to PublicPlayer--><path d="M149.3598,80.183 C149.3598,80.183 136.354,113.136 132,129 C118.988,176.409 110.261,230.622 104.6631,274.818 " fill="none" id="Mastermind-PublicPlayer" style="stroke: #A80036; stroke-width: 1.0;"/><polygon fill="#A80036" points="103.0602,287.894,108.1263,279.448,103.669,282.9312,100.1858,278.4739,103.0602,287.894" style="stroke: #A80036; stroke-width: 1.0;"/><line style="stroke: #A80036; stroke-width: 1.0;" x1="103.669" x2="104.6419" y1="282.9312" y2="274.991"/><polygon fill="#A80036" points="154.077,69.149,148.0404,73.0936,149.3598,80.183,155.3964,76.2384,154.077,69.149" style="stroke: #A80036; stroke-width: 1.0;"/><!--MD5=[dfd79c44c379dea0dff13771ed1f723d]
link SecretPlayer to PublicPlayer--><path d="M201.411,228.407 C188.011,245.388 172.629,264.884 157.831,283.638 " fill="none" id="SecretPlayer-&gt;PublicPlayer" style="stroke: #A80036; stroke-width: 1.0;"/><polygon fill="#A80036" points="154.484,287.879,163.1996,283.2923,157.5816,283.9541,156.9198,278.3361,154.484,287.879" style="stroke: #A80036; stroke-width: 1.0;"/><!--MD5=[49af8b03ef5f0aab0630c213fc426725]
link PublicPlayer to PublicCombination--><path d="M196.2088,433.6252 C196.2088,433.6252 201.102,436.789 203,438 C238.71,460.78 278.941,484.68 313.62,504.753 " fill="none" id="PublicPlayer-PublicCombination" style="stroke: #A80036; stroke-width: 1.0;"/><polygon fill="#A80036" points="325.154,511.407,319.3573,503.4447,320.8231,508.9083,315.3595,510.3741,325.154,511.407" style="stroke: #A80036; stroke-width: 1.0;"/><line style="stroke: #A80036; stroke-width: 1.0;" x1="320.8231" x2="313.893" y1="508.9083" y2="504.9105"/><polygon fill="#FFFFFF" points="186.166,427.057,188.998,433.6887,196.2088,433.6252,193.3768,426.9935,186.166,427.057" style="stroke: #A80036; stroke-width: 1.0;"/><!--MD5=[33f62f5e51ac49784cbe54f77d1183f4]
link SecretPlayer to SecretCombination--><path d="M271.3125,239.0273 C271.3125,239.0273 296.482,286.876 307.74,308.276 " fill="none" id="SecretPlayer-SecretCombination" style="stroke: #A80036; stroke-width: 1.0;"/><polygon fill="#A80036" points="313.793,319.783,313.1438,309.9556,311.4655,315.3577,306.0634,313.6795,313.793,319.783" style="stroke: #A80036; stroke-width: 1.0;"/><line style="stroke: #A80036; stroke-width: 1.0;" x1="311.4655" x2="307.741" y1="315.3577" y2="308.278"/><polygon fill="#FFFFFF" points="265.726,228.407,264.9791,235.5793,271.3125,239.0273,272.0593,231.855,265.726,228.407" style="stroke: #A80036; stroke-width: 1.0;"/><!--MD5=[fb17d59fc630eab6b203a9b783f91ca2]
link SecretCombination to PublicCombination--><path d="M350.138,406.415 C358.643,431.93 369.604,464.812 378.988,492.965 " fill="none" id="SecretCombination-&gt;PublicCombination" style="stroke: #A80036; stroke-width: 1.0; stroke-dasharray: 7.0,7.0;"/><polygon fill="#A80036" points="380.6,497.801,381.5505,487.9981,379.0197,493.0573,373.9605,490.5266,380.6,497.801" style="stroke: #A80036; stroke-width: 1.0;"/><!--MD5=[f874647c3c9f57491b6e7b7bf233051a]
link SecretCombination to Result--><path d="M324.854,406.195 C318.513,432.406 311.213,466.913 308,498 C302.882,547.514 301.945,560.592 308,610 C310.223,628.14 314.463,647.612 318.935,664.983 " fill="none" id="SecretCombination-&gt;Result" style="stroke: #A80036; stroke-width: 1.0; stroke-dasharray: 7.0,7.0;"/><polygon fill="#A80036" points="320.201,669.8242,321.7924,660.1048,318.9353,664.9871,314.053,662.1299,320.201,669.8242" style="stroke: #A80036; stroke-width: 1.0;"/><!--MD5=[6e8433e42d71f9427401b78cd95c6f0c]
link Combination to Color--><path d="M519.831,213.4922 C519.831,213.4922 557.569,294.515 572.609,326.807 " fill="none" id="Combination-Color" style="stroke: #A80036; stroke-width: 1.0;"/><polygon fill="#A80036" points="578.188,338.786,578.0142,328.9387,576.077,334.2535,570.7621,332.3163,578.188,338.786" style="stroke: #A80036; stroke-width: 1.0;"/><line style="stroke: #A80036; stroke-width: 1.0;" x1="576.077" x2="572.6995" y1="334.2535" y2="327.002"/><polygon fill="#A80036" points="514.765,202.614,513.6719,209.7418,519.831,213.4922,520.9241,206.3645,514.765,202.614" style="stroke: #A80036; stroke-width: 1.0;"/><!--MD5=[ed81d3472c9069d2de3c2f5cd308846f]
reverse link Combination to SecretCombination--><path d="M469.045,217.472 C441.509,247.385 403.151,289.054 374.693,319.968 " fill="none" id="Combination&lt;-SecretCombination" style="stroke: #A80036; stroke-width: 1.0;"/><polygon fill="none" points="464.027,212.587,482.723,202.614,474.327,222.069,464.027,212.587" style="stroke: #A80036; stroke-width: 1.0;"/><!--MD5=[98c4438cc838c45be0378faf42be9432]
reverse link Combination to PublicCombination--><path d="M503.507,223.028 C501.702,275.457 494.696,365.517 469,438 C461.698,458.598 450.392,479.49 438.981,497.714 " fill="none" id="Combination&lt;-PublicCombination" style="stroke: #A80036; stroke-width: 1.0;"/><polygon fill="none" points="496.517,222.536,504.006,202.714,510.513,222.88,496.517,222.536" style="stroke: #A80036; stroke-width: 1.0;"/><!--MD5=[36d3bad3c98456dc0cfa9673d5c44a92]
link PublicCombination to Result--><path d="M372.959,621.5284 C372.959,621.5284 363.351,646.072 358.94,657.341 " fill="none" id="PublicCombination-Result" style="stroke: #A80036; stroke-width: 1.0;"/><polygon fill="#A80036" points="354.072,669.7767,361.0773,662.8539,355.8945,665.1207,353.6277,659.9379,354.072,669.7767" style="stroke: #A80036; stroke-width: 1.0;"/><line style="stroke: #A80036; stroke-width: 1.0;" x1="355.8945" x2="358.811" y1="665.1207" y2="657.6715"/><polygon fill="#FFFFFF" points="377.333,610.354,371.4212,614.4832,372.959,621.5284,378.8708,617.3992,377.333,610.354" style="stroke: #A80036; stroke-width: 1.0;"/><!--MD5=[48d66f598c02c2d8a7c6cd3a18224d96]
@startuml
class Mastermind{
 play()  
}

class SecretPlayer{
  SecretPlayer(ProposedPlayer)
 generateCombination()  
  answer()
  printCombination()
}
class PublicPlayer{
  attempts
  generateCombination()
  getLastProposedPlayer()
  hasAttempts()
  writeAttempts()
  writeProposedCombinations()
  isWinner()
  isLooser()
  }

class Combination
enum Color
class SecretCombination{
  SecretCombination() // aleatorio
  calculateResult(ProposedCombination)
  write()
  }
class PublicCombination{
  read()
  calculateBlacks()
  calculateWhites()
  set(Result)
  isWinner()
  }

class Result{
  blacks
  whites
  write()
  isWinner()
  }


Mastermind *- -> SecretPlayer
Mastermind *- -> PublicPlayer

SecretPlayer - -> PublicPlayer

PublicPlayer o- -> PublicCombination
SecretPlayer o- -> SecretCombination

SecretCombination ..> PublicCombination
SecretCombination ..> Result
Combination *- -> Color

Combination <|-down- SecretCombination
Combination <|-down- PublicCombination

PublicCombination o- -> Result
@enduml

PlantUML version 1.2019.11(Sun Sep 22 10:02:15 UTC 2019)
(GPL source distribution)
Java Runtime: Java(TM) SE Runtime Environment
JVM: Java HotSpot(TM) 64-Bit Server VM
Java Version: 1.7.0_25-b15
Operating System: Linux
Default Encoding: UTF-8
Language: en
Country: US
--></g></svg>