<?xml version="1.0" encoding="UTF-8" standalone="no"?><svg xmlns="http://www.w3.org/2000/svg" xmlns:xlink="http://www.w3.org/1999/xlink" contentScriptType="application/ecmascript" contentStyleType="text/css" height="697px" preserveAspectRatio="none" style="width:510px;height:697px;" version="1.1" viewBox="0 0 510 697" width="510px" zoomAndPan="magnify"><defs><filter height="300%" id="fwl89z9sw5afs" width="300%" x="-1" y="-1"><feGaussianBlur result="blurOut" stdDeviation="2.0"/><feColorMatrix in="blurOut" result="blurOut2" type="matrix" values="0 0 0 0 0 0 0 0 0 0 0 0 0 0 0 0 0 0 .4 0"/><feOffset dx="4.0" dy="4.0" in="blurOut2" result="blurOut3"/><feBlend in="SourceGraphic" in2="blurOut3" mode="normal"/></filter></defs><g><!--MD5=[36f719b1cbc3f26b5758ea249b208fb4]
class TicTacToe--><rect fill="#FEFECE" filter="url(#fwl89z9sw5afs)" height="60.8047" id="TicTacToe" style="stroke: #A80036; stroke-width: 1.5;" width="94" x="326.5" y="8"/><ellipse cx="341.5" cy="24" fill="#ADD1B2" rx="11" ry="11" style="stroke: #A80036; stroke-width: 1.0;"/><path d="M343.8438,19.6719 L344.0156,19.75 C344.2344,19.4375 344.4375,19.3438 344.7344,19.3438 C345.0313,19.3438 345.3125,19.4844 345.4688,19.75 C345.5625,19.9063 345.5781,20.0313 345.5781,20.4688 L345.5781,21.8906 C345.5781,22.3125 345.5469,22.5 345.4375,22.6563 C345.2656,22.875 345,23.0156 344.7344,23.0156 C344.5156,23.0156 344.2813,22.9063 344.1406,22.7656 C344,22.6406 343.9688,22.5156 343.9063,22.1094 C343.8125,21.7031 343.6406,21.4844 343.1563,21.2031 C342.6875,20.9531 342.0781,20.7969 341.5,20.7969 C339.7656,20.7969 338.5156,22.1094 338.5156,23.8906 L338.5156,24.9844 C338.5156,26.6875 339.8125,27.7813 341.8594,27.7813 C342.625,27.7813 343.3125,27.6563 343.7344,27.3906 C343.9219,27.2969 343.9219,27.2969 344.375,26.8125 C344.5625,26.625 344.7656,26.5469 344.9844,26.5469 C345.4531,26.5469 345.8438,26.9375 345.8438,27.3906 C345.8438,27.7813 345.5156,28.2344 344.9375,28.6406 C344.1875,29.1875 343.0313,29.4844 341.8125,29.4844 C338.9219,29.4844 336.8125,27.5938 336.8125,25.0156 L336.8125,23.8906 C336.8125,21.1719 338.8125,19.0938 341.4375,19.0938 C342.3125,19.0938 342.9063,19.2344 343.8438,19.6719 Z "/><text fill="#000000" font-family="sans-serif" font-size="12" lengthAdjust="spacingAndGlyphs" textLength="62" x="355.5" y="28.1543">TicTacToe</text><line style="stroke: #A80036; stroke-width: 1.5;" x1="327.5" x2="419.5" y1="40" y2="40"/><line style="stroke: #A80036; stroke-width: 1.5;" x1="327.5" x2="419.5" y1="48" y2="48"/><text fill="#000000" font-family="sans-serif" font-size="11" lengthAdjust="spacingAndGlyphs" textLength="31" x="332.5" y="62.2104">play()</text><!--MD5=[2cb47ba637a0d19583e6199456f6ad0b]
class Player--><rect fill="#FEFECE" filter="url(#fwl89z9sw5afs)" height="99.2188" id="Player" style="stroke: #A80036; stroke-width: 1.5;" width="72" x="266.5" y="129"/><ellipse cx="282.4" cy="145" fill="#ADD1B2" rx="11" ry="11" style="stroke: #A80036; stroke-width: 1.0;"/><path d="M284.7438,140.6719 L284.9156,140.75 C285.1344,140.4375 285.3375,140.3438 285.6344,140.3438 C285.9313,140.3438 286.2125,140.4844 286.3688,140.75 C286.4625,140.9063 286.4781,141.0313 286.4781,141.4688 L286.4781,142.8906 C286.4781,143.3125 286.4469,143.5 286.3375,143.6563 C286.1656,143.875 285.9,144.0156 285.6344,144.0156 C285.4156,144.0156 285.1813,143.9063 285.0406,143.7656 C284.9,143.6406 284.8688,143.5156 284.8063,143.1094 C284.7125,142.7031 284.5406,142.4844 284.0563,142.2031 C283.5875,141.9531 282.9781,141.7969 282.4,141.7969 C280.6656,141.7969 279.4156,143.1094 279.4156,144.8906 L279.4156,145.9844 C279.4156,147.6875 280.7125,148.7813 282.7594,148.7813 C283.525,148.7813 284.2125,148.6563 284.6344,148.3906 C284.8219,148.2969 284.8219,148.2969 285.275,147.8125 C285.4625,147.625 285.6656,147.5469 285.8844,147.5469 C286.3531,147.5469 286.7438,147.9375 286.7438,148.3906 C286.7438,148.7813 286.4156,149.2344 285.8375,149.6406 C285.0875,150.1875 283.9313,150.4844 282.7125,150.4844 C279.8219,150.4844 277.7125,148.5938 277.7125,146.0156 L277.7125,144.8906 C277.7125,142.1719 279.7125,140.0938 282.3375,140.0938 C283.2125,140.0938 283.8063,140.2344 284.7438,140.6719 Z "/><text fill="#000000" font-family="sans-serif" font-size="12" lengthAdjust="spacingAndGlyphs" textLength="38" x="296.6" y="149.1543">Player</text><line style="stroke: #A80036; stroke-width: 1.5;" x1="267.5" x2="337.5" y1="161" y2="161"/><text fill="#000000" font-family="sans-serif" font-size="11" lengthAdjust="spacingAndGlyphs" textLength="40" x="272.5" y="175.2104">attepts</text><text fill="#000000" font-family="sans-serif" font-size="11" lengthAdjust="spacingAndGlyphs" textLength="23" x="272.5" y="188.0151">turn</text><line style="stroke: #A80036; stroke-width: 1.5;" x1="267.5" x2="337.5" y1="194.6094" y2="194.6094"/><text fill="#000000" font-family="sans-serif" font-size="11" lengthAdjust="spacingAndGlyphs" textLength="56" x="272.5" y="208.8198">isWinner()</text><text fill="#000000" font-family="sans-serif" font-size="11" lengthAdjust="spacingAndGlyphs" textLength="60" x="272.5" y="221.6245">setToken()</text><!--MD5=[9563755d011c5cec7ec66dc53565a59e]
class Board--><rect fill="#FEFECE" filter="url(#fwl89z9sw5afs)" height="73.6094" id="Board" style="stroke: #A80036; stroke-width: 1.5;" width="121" x="378" y="396"/><ellipse cx="416.4" cy="412" fill="#ADD1B2" rx="11" ry="11" style="stroke: #A80036; stroke-width: 1.0;"/><path d="M418.7438,407.6719 L418.9156,407.75 C419.1344,407.4375 419.3375,407.3438 419.6344,407.3438 C419.9313,407.3438 420.2125,407.4844 420.3688,407.75 C420.4625,407.9063 420.4781,408.0313 420.4781,408.4688 L420.4781,409.8906 C420.4781,410.3125 420.4469,410.5 420.3375,410.6563 C420.1656,410.875 419.9,411.0156 419.6344,411.0156 C419.4156,411.0156 419.1813,410.9063 419.0406,410.7656 C418.9,410.6406 418.8688,410.5156 418.8063,410.1094 C418.7125,409.7031 418.5406,409.4844 418.0563,409.2031 C417.5875,408.9531 416.9781,408.7969 416.4,408.7969 C414.6656,408.7969 413.4156,410.1094 413.4156,411.8906 L413.4156,412.9844 C413.4156,414.6875 414.7125,415.7813 416.7594,415.7813 C417.525,415.7813 418.2125,415.6563 418.6344,415.3906 C418.8219,415.2969 418.8219,415.2969 419.275,414.8125 C419.4625,414.625 419.6656,414.5469 419.8844,414.5469 C420.3531,414.5469 420.7438,414.9375 420.7438,415.3906 C420.7438,415.7813 420.4156,416.2344 419.8375,416.6406 C419.0875,417.1875 417.9313,417.4844 416.7125,417.4844 C413.8219,417.4844 411.7125,415.5938 411.7125,413.0156 L411.7125,411.8906 C411.7125,409.1719 413.7125,407.0938 416.3375,407.0938 C417.2125,407.0938 417.8063,407.2344 418.7438,407.6719 Z "/><text fill="#000000" font-family="sans-serif" font-size="12" lengthAdjust="spacingAndGlyphs" textLength="37" x="435.6" y="416.1543">Board</text><line style="stroke: #A80036; stroke-width: 1.5;" x1="379" x2="498" y1="428" y2="428"/><line style="stroke: #A80036; stroke-width: 1.5;" x1="379" x2="498" y1="436" y2="436"/><text fill="#000000" font-family="sans-serif" font-size="11" lengthAdjust="spacingAndGlyphs" textLength="109" x="384" y="450.2104">isBoxFree(position)</text><text fill="#000000" font-family="sans-serif" font-size="11" lengthAdjust="spacingAndGlyphs" textLength="47" x="384" y="463.0151">update()</text><!--MD5=[a64a835c3d62471a77f615251fdde58a]
class Position--><rect fill="#FEFECE" filter="url(#fwl89z9sw5afs)" height="48" id="Position" style="stroke: #A80036; stroke-width: 1.5;" width="82" x="397.5" y="638"/><ellipse cx="412.5" cy="654" fill="#ADD1B2" rx="11" ry="11" style="stroke: #A80036; stroke-width: 1.0;"/><path d="M414.8438,649.6719 L415.0156,649.75 C415.2344,649.4375 415.4375,649.3438 415.7344,649.3438 C416.0313,649.3438 416.3125,649.4844 416.4688,649.75 C416.5625,649.9063 416.5781,650.0313 416.5781,650.4688 L416.5781,651.8906 C416.5781,652.3125 416.5469,652.5 416.4375,652.6563 C416.2656,652.875 416,653.0156 415.7344,653.0156 C415.5156,653.0156 415.2813,652.9063 415.1406,652.7656 C415,652.6406 414.9688,652.5156 414.9063,652.1094 C414.8125,651.7031 414.6406,651.4844 414.1563,651.2031 C413.6875,650.9531 413.0781,650.7969 412.5,650.7969 C410.7656,650.7969 409.5156,652.1094 409.5156,653.8906 L409.5156,654.9844 C409.5156,656.6875 410.8125,657.7813 412.8594,657.7813 C413.625,657.7813 414.3125,657.6563 414.7344,657.3906 C414.9219,657.2969 414.9219,657.2969 415.375,656.8125 C415.5625,656.625 415.7656,656.5469 415.9844,656.5469 C416.4531,656.5469 416.8438,656.9375 416.8438,657.3906 C416.8438,657.7813 416.5156,658.2344 415.9375,658.6406 C415.1875,659.1875 414.0313,659.4844 412.8125,659.4844 C409.9219,659.4844 407.8125,657.5938 407.8125,655.0156 L407.8125,653.8906 C407.8125,651.1719 409.8125,649.0938 412.4375,649.0938 C413.3125,649.0938 413.9063,649.2344 414.8438,649.6719 Z "/><text fill="#000000" font-family="sans-serif" font-size="12" lengthAdjust="spacingAndGlyphs" textLength="50" x="426.5" y="658.1543">Position</text><line style="stroke: #A80036; stroke-width: 1.5;" x1="398.5" x2="478.5" y1="670" y2="670"/><line style="stroke: #A80036; stroke-width: 1.5;" x1="398.5" x2="478.5" y1="678" y2="678"/><!--MD5=[2741598bdf59a7d7e0d5c97658fd3022]
class Result--><rect fill="#FEFECE" filter="url(#fwl89z9sw5afs)" height="73.6094" id="Result" style="stroke: #A80036; stroke-width: 1.5;" width="71" x="91" y="396"/><ellipse cx="106" cy="412" fill="#ADD1B2" rx="11" ry="11" style="stroke: #A80036; stroke-width: 1.0;"/><path d="M108.3438,407.6719 L108.5156,407.75 C108.7344,407.4375 108.9375,407.3438 109.2344,407.3438 C109.5313,407.3438 109.8125,407.4844 109.9688,407.75 C110.0625,407.9063 110.0781,408.0313 110.0781,408.4688 L110.0781,409.8906 C110.0781,410.3125 110.0469,410.5 109.9375,410.6563 C109.7656,410.875 109.5,411.0156 109.2344,411.0156 C109.0156,411.0156 108.7813,410.9063 108.6406,410.7656 C108.5,410.6406 108.4688,410.5156 108.4063,410.1094 C108.3125,409.7031 108.1406,409.4844 107.6563,409.2031 C107.1875,408.9531 106.5781,408.7969 106,408.7969 C104.2656,408.7969 103.0156,410.1094 103.0156,411.8906 L103.0156,412.9844 C103.0156,414.6875 104.3125,415.7813 106.3594,415.7813 C107.125,415.7813 107.8125,415.6563 108.2344,415.3906 C108.4219,415.2969 108.4219,415.2969 108.875,414.8125 C109.0625,414.625 109.2656,414.5469 109.4844,414.5469 C109.9531,414.5469 110.3438,414.9375 110.3438,415.3906 C110.3438,415.7813 110.0156,416.2344 109.4375,416.6406 C108.6875,417.1875 107.5313,417.4844 106.3125,417.4844 C103.4219,417.4844 101.3125,415.5938 101.3125,413.0156 L101.3125,411.8906 C101.3125,409.1719 103.3125,407.0938 105.9375,407.0938 C106.8125,407.0938 107.4063,407.2344 108.3438,407.6719 Z "/><text fill="#000000" font-family="sans-serif" font-size="12" lengthAdjust="spacingAndGlyphs" textLength="39" x="120" y="416.1543">Result</text><line style="stroke: #A80036; stroke-width: 1.5;" x1="92" x2="161" y1="428" y2="428"/><line style="stroke: #A80036; stroke-width: 1.5;" x1="92" x2="161" y1="436" y2="436"/><text fill="#000000" font-family="sans-serif" font-size="11" lengthAdjust="spacingAndGlyphs" textLength="36" x="97" y="450.2104">write()</text><text fill="#000000" font-family="sans-serif" font-size="11" lengthAdjust="spacingAndGlyphs" textLength="56" x="97" y="463.0151">isWinner()</text><!--MD5=[59f50d8173b5962227b36bc42de9eb0c]
class BlackPlayer--><rect fill="#FEFECE" filter="url(#fwl89z9sw5afs)" height="48" id="BlackPlayer" style="stroke: #A80036; stroke-width: 1.5;" width="103" x="6" y="288"/><ellipse cx="21" cy="304" fill="#ADD1B2" rx="11" ry="11" style="stroke: #A80036; stroke-width: 1.0;"/><path d="M23.3438,299.6719 L23.5156,299.75 C23.7344,299.4375 23.9375,299.3438 24.2344,299.3438 C24.5313,299.3438 24.8125,299.4844 24.9688,299.75 C25.0625,299.9063 25.0781,300.0313 25.0781,300.4688 L25.0781,301.8906 C25.0781,302.3125 25.0469,302.5 24.9375,302.6563 C24.7656,302.875 24.5,303.0156 24.2344,303.0156 C24.0156,303.0156 23.7813,302.9063 23.6406,302.7656 C23.5,302.6406 23.4688,302.5156 23.4063,302.1094 C23.3125,301.7031 23.1406,301.4844 22.6563,301.2031 C22.1875,300.9531 21.5781,300.7969 21,300.7969 C19.2656,300.7969 18.0156,302.1094 18.0156,303.8906 L18.0156,304.9844 C18.0156,306.6875 19.3125,307.7813 21.3594,307.7813 C22.125,307.7813 22.8125,307.6563 23.2344,307.3906 C23.4219,307.2969 23.4219,307.2969 23.875,306.8125 C24.0625,306.625 24.2656,306.5469 24.4844,306.5469 C24.9531,306.5469 25.3438,306.9375 25.3438,307.3906 C25.3438,307.7813 25.0156,308.2344 24.4375,308.6406 C23.6875,309.1875 22.5313,309.4844 21.3125,309.4844 C18.4219,309.4844 16.3125,307.5938 16.3125,305.0156 L16.3125,303.8906 C16.3125,301.1719 18.3125,299.0938 20.9375,299.0938 C21.8125,299.0938 22.4063,299.2344 23.3438,299.6719 Z "/><text fill="#000000" font-family="sans-serif" font-size="12" lengthAdjust="spacingAndGlyphs" textLength="71" x="35" y="308.1543">BlackPlayer</text><line style="stroke: #A80036; stroke-width: 1.5;" x1="7" x2="108" y1="320" y2="320"/><line style="stroke: #A80036; stroke-width: 1.5;" x1="7" x2="108" y1="328" y2="328"/><!--MD5=[45744f6d92f9014a5ef3620bd6e9b40c]
class WhitePlayer--><rect fill="#FEFECE" filter="url(#fwl89z9sw5afs)" height="48" id="WhitePlayer" style="stroke: #A80036; stroke-width: 1.5;" width="105" x="144" y="288"/><ellipse cx="159" cy="304" fill="#ADD1B2" rx="11" ry="11" style="stroke: #A80036; stroke-width: 1.0;"/><path d="M161.3438,299.6719 L161.5156,299.75 C161.7344,299.4375 161.9375,299.3438 162.2344,299.3438 C162.5313,299.3438 162.8125,299.4844 162.9688,299.75 C163.0625,299.9063 163.0781,300.0313 163.0781,300.4688 L163.0781,301.8906 C163.0781,302.3125 163.0469,302.5 162.9375,302.6563 C162.7656,302.875 162.5,303.0156 162.2344,303.0156 C162.0156,303.0156 161.7813,302.9063 161.6406,302.7656 C161.5,302.6406 161.4688,302.5156 161.4063,302.1094 C161.3125,301.7031 161.1406,301.4844 160.6563,301.2031 C160.1875,300.9531 159.5781,300.7969 159,300.7969 C157.2656,300.7969 156.0156,302.1094 156.0156,303.8906 L156.0156,304.9844 C156.0156,306.6875 157.3125,307.7813 159.3594,307.7813 C160.125,307.7813 160.8125,307.6563 161.2344,307.3906 C161.4219,307.2969 161.4219,307.2969 161.875,306.8125 C162.0625,306.625 162.2656,306.5469 162.4844,306.5469 C162.9531,306.5469 163.3438,306.9375 163.3438,307.3906 C163.3438,307.7813 163.0156,308.2344 162.4375,308.6406 C161.6875,309.1875 160.5313,309.4844 159.3125,309.4844 C156.4219,309.4844 154.3125,307.5938 154.3125,305.0156 L154.3125,303.8906 C154.3125,301.1719 156.3125,299.0938 158.9375,299.0938 C159.8125,299.0938 160.4063,299.2344 161.3438,299.6719 Z "/><text fill="#000000" font-family="sans-serif" font-size="12" lengthAdjust="spacingAndGlyphs" textLength="73" x="173" y="308.1543">WhitePlayer</text><line style="stroke: #A80036; stroke-width: 1.5;" x1="145" x2="248" y1="320" y2="320"/><line style="stroke: #A80036; stroke-width: 1.5;" x1="145" x2="248" y1="328" y2="328"/><!--MD5=[18eee71c88ab61f27581b8cbdd3ef5ee]
class Color--><rect fill="#FEFECE" filter="url(#fwl89z9sw5afs)" height="48" id="Color" style="stroke: #A80036; stroke-width: 1.5;" width="64" x="270.5" y="530"/><ellipse cx="285.5" cy="546" fill="#EB937F" rx="11" ry="11" style="stroke: #A80036; stroke-width: 1.0;"/><path d="M283.7969,546.875 L283.7969,549.2969 L288.1563,549.2969 L288.1563,548.4219 C288.1563,547.9375 288.1875,547.7969 288.2969,547.6406 C288.4688,547.3906 288.7344,547.2813 289,547.2813 C289.2813,547.2813 289.5625,547.4375 289.7344,547.6875 C289.8125,547.8438 289.8438,547.9844 289.8438,548.4219 L289.8438,551 L281.8438,551 C281.4531,551 281.2188,550.9531 281.0781,550.8281 C280.8594,550.6719 280.7188,550.4219 280.7188,550.1563 C280.7188,549.8594 280.875,549.5938 281.125,549.4219 C281.2813,549.3125 281.4375,549.2969 281.8438,549.2969 L282.0938,549.2969 L282.0938,542.7813 L281.8438,542.7813 C281.4219,542.7813 281.2344,542.75 281.0781,542.6406 C280.8594,542.4688 280.7188,542.2188 280.7188,541.9375 C280.7188,541.6563 280.875,541.3594 281.125,541.2031 C281.2813,541.1094 281.4063,541.0938 281.8438,541.0938 L289.4688,541.0938 L289.4688,543.6406 C289.4688,544.1094 289.4375,544.25 289.3281,544.4219 C289.1563,544.6406 288.8906,544.7813 288.625,544.7813 C288.3438,544.7813 288.0625,544.625 287.8906,544.375 C287.8125,544.2188 287.7813,544.0469 287.7813,543.6406 L287.7813,542.7813 L283.7969,542.7813 L283.7969,545.1875 L285.25,545.1875 L285.25,545.0625 C285.25,544.6094 285.2813,544.4531 285.3906,544.2813 C285.5625,544.0625 285.8281,543.9219 286.0781,543.9219 C286.5313,543.9219 286.8438,544.2344 286.9063,544.7031 C286.9219,544.8594 286.9219,544.9063 286.9219,545.0625 L286.9219,546.9844 C286.9219,547.4375 286.8906,547.5938 286.7656,547.75 C286.6094,547.9688 286.3438,548.1094 286.0938,548.1094 C285.7969,548.1094 285.5156,547.9531 285.3594,547.7031 C285.2813,547.5469 285.25,547.3906 285.25,546.9844 L285.25,546.875 Z "/><text fill="#000000" font-family="sans-serif" font-size="12" lengthAdjust="spacingAndGlyphs" textLength="32" x="299.5" y="550.1543">Color</text><line style="stroke: #A80036; stroke-width: 1.5;" x1="271.5" x2="333.5" y1="562" y2="562"/><line style="stroke: #A80036; stroke-width: 1.5;" x1="271.5" x2="333.5" y1="570" y2="570"/><!--MD5=[d8c8cfd5ca149094f5b67f9f607a5ec7]
class Token--><rect fill="#FEFECE" filter="url(#fwl89z9sw5afs)" height="48" id="Token" style="stroke: #A80036; stroke-width: 1.5;" width="70" x="267.5" y="409"/><ellipse cx="282.5" cy="425" fill="#ADD1B2" rx="11" ry="11" style="stroke: #A80036; stroke-width: 1.0;"/><path d="M284.8438,420.6719 L285.0156,420.75 C285.2344,420.4375 285.4375,420.3438 285.7344,420.3438 C286.0313,420.3438 286.3125,420.4844 286.4688,420.75 C286.5625,420.9063 286.5781,421.0313 286.5781,421.4688 L286.5781,422.8906 C286.5781,423.3125 286.5469,423.5 286.4375,423.6563 C286.2656,423.875 286,424.0156 285.7344,424.0156 C285.5156,424.0156 285.2813,423.9063 285.1406,423.7656 C285,423.6406 284.9688,423.5156 284.9063,423.1094 C284.8125,422.7031 284.6406,422.4844 284.1563,422.2031 C283.6875,421.9531 283.0781,421.7969 282.5,421.7969 C280.7656,421.7969 279.5156,423.1094 279.5156,424.8906 L279.5156,425.9844 C279.5156,427.6875 280.8125,428.7813 282.8594,428.7813 C283.625,428.7813 284.3125,428.6563 284.7344,428.3906 C284.9219,428.2969 284.9219,428.2969 285.375,427.8125 C285.5625,427.625 285.7656,427.5469 285.9844,427.5469 C286.4531,427.5469 286.8438,427.9375 286.8438,428.3906 C286.8438,428.7813 286.5156,429.2344 285.9375,429.6406 C285.1875,430.1875 284.0313,430.4844 282.8125,430.4844 C279.9219,430.4844 277.8125,428.5938 277.8125,426.0156 L277.8125,424.8906 C277.8125,422.1719 279.8125,420.0938 282.4375,420.0938 C283.3125,420.0938 283.9063,420.2344 284.8438,420.6719 Z "/><text fill="#000000" font-family="sans-serif" font-size="12" lengthAdjust="spacingAndGlyphs" textLength="38" x="296.5" y="429.1543">Token</text><line style="stroke: #A80036; stroke-width: 1.5;" x1="268.5" x2="336.5" y1="441" y2="441"/><line style="stroke: #A80036; stroke-width: 1.5;" x1="268.5" x2="336.5" y1="449" y2="449"/><!--MD5=[434cd2fe8549537c128785c8ce0a3fa2]
link TicTacToe to Player--><path d="M352.7794,79.7747 C352.7794,79.7747 339.83,104.943 333.481,117.284 " fill="none" id="TicTacToe-Player" style="stroke: #A80036; stroke-width: 1.0;"/><polygon fill="#A80036" points="327.48,128.946,335.1541,122.7729,329.7673,124.4999,328.0403,119.1131,327.48,128.946" style="stroke: #A80036; stroke-width: 1.0;"/><line style="stroke: #A80036; stroke-width: 1.0;" x1="329.7673" x2="333.428" y1="124.4999" y2="117.3865"/><polygon fill="#A80036" points="358.269,69.104,351.9673,72.6095,352.7794,79.7747,359.0811,76.2692,358.269,69.104" style="stroke: #A80036; stroke-width: 1.0;"/><!--MD5=[a737d2231371e146ba098899a67f3b67]
link TicTacToe to Board--><path d="M380.347,80.8397 C380.347,80.8397 417.491,305.139 430.355,382.819 " fill="none" id="TicTacToe-Board" style="stroke: #A80036; stroke-width: 1.0;"/><polygon fill="#A80036" points="432.538,396,435.0136,386.4674,431.721,391.0672,427.1212,387.7746,432.538,396" style="stroke: #A80036; stroke-width: 1.0;"/><line style="stroke: #A80036; stroke-width: 1.0;" x1="431.721" x2="430.414" y1="391.0672" y2="383.1745"/><polygon fill="#A80036" points="378.386,69.001,375.4203,75.574,380.347,80.8397,383.3127,74.2667,378.386,69.001" style="stroke: #A80036; stroke-width: 1.0;"/><!--MD5=[ae8daa8746dbb7a97d0ee2489a65bf34]
reverse link Player to BlackPlayer--><path d="M248.461,208.504 C203.916,232.414 141.58,265.871 100.4035,287.972 " fill="none" id="Player&lt;-BlackPlayer" style="stroke: #A80036; stroke-width: 1.0;"/><polygon fill="none" points="245.417,202.194,266.349,198.903,252.038,214.529,245.417,202.194" style="stroke: #A80036; stroke-width: 1.0;"/><!--MD5=[f1c37995e93289613fc72564060a09d8]
reverse link Player to WhitePlayer--><path d="M253.721,240.013 C240.062,256.959 226.026,274.371 215.274,287.709 " fill="none" id="Player&lt;-WhitePlayer" style="stroke: #A80036; stroke-width: 1.0;"/><polygon fill="none" points="248.316,235.565,266.317,224.387,259.216,244.351,248.316,235.565" style="stroke: #A80036; stroke-width: 1.0;"/><!--MD5=[525e20984b3f0335f86e1ed389de5b3d]
link Player to Token--><path d="M302.5,240.185 C302.5,240.185 302.5,355.547 302.5,395.78 " fill="none" id="Player-Token" style="stroke: #A80036; stroke-width: 1.0;"/><polygon fill="#A80036" points="302.5,408.881,306.5,399.881,302.5,403.881,298.5,399.881,302.5,408.881" style="stroke: #A80036; stroke-width: 1.0;"/><line style="stroke: #A80036; stroke-width: 1.0;" x1="302.5" x2="302.5" y1="403.881" y2="395.881"/><polygon fill="#A80036" points="302.5,228.185,298.5,234.185,302.5,240.185,306.5,234.185,302.5,228.185" style="stroke: #A80036; stroke-width: 1.0;"/><!--MD5=[c1f7e88598f78d9459764ed93737eb14]
link Player to Board--><path d="M328.722,228.185 C354.244,275.568 392.584,346.752 416.544,391.236 " fill="none" id="Player-&gt;Board" style="stroke: #A80036; stroke-width: 1.0;"/><polygon fill="#A80036" points="418.96,395.722,418.2138,385.9014,416.589,391.3199,411.1705,389.6951,418.96,395.722" style="stroke: #A80036; stroke-width: 1.0;"/><!--MD5=[b38382a416de7a13c1392a4cc84618aa]
link BlackPlayer to Result--><path d="M76.9864,346.6085 C76.9864,346.6085 91.7302,372.035 98.8235,384.268 " fill="none" id="BlackPlayer-Result" style="stroke: #A80036; stroke-width: 1.0;"/><polygon fill="#A80036" points="105.4602,395.714,104.4057,385.9218,102.952,391.3886,97.4851,389.9349,105.4602,395.714" style="stroke: #A80036; stroke-width: 1.0;"/><line style="stroke: #A80036; stroke-width: 1.0;" x1="102.952" x2="98.9393" y1="391.3886" y2="384.4675"/><polygon fill="#FFFFFF" points="70.9677,336.227,70.5166,343.424,76.9864,346.6085,77.4375,339.4115,70.9677,336.227" style="stroke: #A80036; stroke-width: 1.0;"/><!--MD5=[b5b848814afaca528944db4612486f14]
link WhitePlayer to Result--><path d="M176.7529,346.5703 C176.7529,346.5703 161.774,372.035 154.578,384.268 " fill="none" id="WhitePlayer-Result" style="stroke: #A80036; stroke-width: 1.0;"/><polygon fill="#A80036" points="147.845,395.714,155.8559,389.9846,150.3801,391.4043,148.9603,385.9285,147.845,395.714" style="stroke: #A80036; stroke-width: 1.0;"/><line style="stroke: #A80036; stroke-width: 1.0;" x1="150.3801" x2="154.436" y1="391.4043" y2="384.509"/><polygon fill="#FFFFFF" points="182.837,336.227,176.3472,339.3706,176.7529,346.5703,183.2427,343.4267,182.837,336.227" style="stroke: #A80036; stroke-width: 1.0;"/><!--MD5=[304335c530676c0c2555e056aeeb939b]
link Token to Color--><path d="M302.5,469.227 C302.5,469.227 302.5,501.979 302.5,516.618 " fill="none" id="Token-Color" style="stroke: #A80036; stroke-width: 1.0;"/><polygon fill="#A80036" points="302.5,529.832,306.5,520.832,302.5,524.832,298.5,520.832,302.5,529.832" style="stroke: #A80036; stroke-width: 1.0;"/><line style="stroke: #A80036; stroke-width: 1.0;" x1="302.5" x2="302.5" y1="524.832" y2="516.832"/><polygon fill="#A80036" points="302.5,457.227,298.5,463.227,302.5,469.227,306.5,463.227,302.5,457.227" style="stroke: #A80036; stroke-width: 1.0;"/><!--MD5=[34e3646a1e918e51581fb73972ff800c]
link Board to Position--><path d="M438.5,482.22 C438.5,482.22 438.5,586.4602 438.5,624.7175 " fill="none" id="Board-Position" style="stroke: #A80036; stroke-width: 1.0;"/><polygon fill="#A80036" points="438.5,637.7308,442.5,628.7308,438.5,632.7308,434.5,628.7308,438.5,637.7308" style="stroke: #A80036; stroke-width: 1.0;"/><line style="stroke: #A80036; stroke-width: 1.0;" x1="438.5" x2="438.5" y1="632.7308" y2="624.7309"/><polygon fill="#A80036" points="438.5,470.22,434.5,476.22,438.5,482.22,442.5,476.22,438.5,470.22" style="stroke: #A80036; stroke-width: 1.0;"/><!--MD5=[24f39ab4eefec0ea4f95d9e59a342d59]
@startuml
class TicTacToe{
 play()  
}

class Player {
attepts
turn
isWinner()
setToken()
}

class Board {
isBoxFree(position)
update()
}

class Position 


class Result{

  write()
  isWinner()
  }
  

class BlackPlayer{
  
}
class WhitePlayer{

  }
  
enum Color


TicTacToe *- -> Player
TicTacToe *- -> Board

Player <|-down- BlackPlayer
Player <|-down- WhitePlayer

Player *- - -> Token
Player - - -> Board

BlackPlayer o- -> Result 
 WhitePlayer o- -> Result 

Token *- -> Color

Board *- - -> Position
@enduml

PlantUML version 1.2019.11(Sun Sep 22 10:02:15 UTC 2019)
(GPL source distribution)
Java Runtime: Java(TM) SE Runtime Environment
JVM: Java HotSpot(TM) 64-Bit Server VM
Java Version: 1.7.0_25-b15
Operating System: Linux
Default Encoding: UTF-8
Language: en
Country: US
--></g></svg>